<?xml version="1.0" encoding="UTF-8" standalone="no"?>
<!DOCTYPE svg PUBLIC "-//W3C//DTD SVG 1.1//EN"
 "http://www.w3.org/Graphics/SVG/1.1/DTD/svg11.dtd">
<!-- Generated by graphviz version 12.2.0 (20241103.1931)
 -->
<!-- Pages: 1 -->
<svg width="2835pt" height="563pt"
 viewBox="0.00 0.00 2834.87 563.00" xmlns="http://www.w3.org/2000/svg" xmlns:xlink="http://www.w3.org/1999/xlink">
<g id="graph0" class="graph" transform="scale(1 1) rotate(0) translate(4 559)">
<polygon fill="white" stroke="none" points="-4,4 -4,-559 2830.87,-559 2830.87,4 -4,4"/>
<g id="clust1" class="cluster">
<title>cluster_0</title>
<polygon fill="none" stroke="black" points="8,-255 8,-461 1563.55,-461 1563.55,-255 8,-255"/>
<text text-anchor="middle" x="785.78" y="-443.7" font-family="Times New Roman,serif" font-size="14.00">Production Process Layer</text>
</g>
<g id="clust2" class="cluster">
<title>cluster_1</title>
<polygon fill="none" stroke="black" points="1422.75,-170 1422.75,-247 1958.87,-247 1958.87,-170 1422.75,-170"/>
<text text-anchor="middle" x="1690.81" y="-229.7" font-family="Times New Roman,serif" font-size="14.00">Data Pipeline</text>
</g>
<g id="clust3" class="cluster">
<title>cluster_2</title>
<polygon fill="none" stroke="black" points="2003.37,-170 2003.37,-547 2355.87,-547 2355.87,-170 2003.37,-170"/>
<text text-anchor="middle" x="2179.62" y="-529.7" font-family="Times New Roman,serif" font-size="14.00">Analysis Layer</text>
</g>
<g id="clust4" class="cluster">
<title>cluster_3</title>
<polygon fill="none" stroke="black" points="2430.37,-95 2430.37,-280 2818.87,-280 2818.87,-95 2430.37,-95"/>
<text text-anchor="middle" x="2624.62" y="-262.7" font-family="Times New Roman,serif" font-size="14.00">User Interface Layer</text>
</g>
<!-- design -->
<g id="node1" class="node">
<title>design</title>
<path fill="#e1f5fe" stroke="black" d="M239,-367.6C239,-367.6 155,-367.6 155,-367.6 149,-367.6 143,-361.6 143,-355.6 143,-355.6 143,-336.4 143,-336.4 143,-330.4 149,-324.4 155,-324.4 155,-324.4 239,-324.4 239,-324.4 245,-324.4 251,-330.4 251,-336.4 251,-336.4 251,-355.6 251,-355.6 251,-361.6 245,-367.6 239,-367.6"/>
<text text-anchor="middle" x="197" y="-349.2" font-family="Times New Roman,serif" font-size="14.00">Casting/Gating</text>
<text text-anchor="middle" x="197" y="-332.7" font-family="Times New Roman,serif" font-size="14.00">System Design</text>
</g>
<!-- core -->
<g id="node3" class="node">
<title>core</title>
<path fill="#e1f5fe" stroke="black" d="M366,-367.6C366,-367.6 282,-367.6 282,-367.6 276,-367.6 270,-361.6 270,-355.6 270,-355.6 270,-336.4 270,-336.4 270,-330.4 276,-324.4 282,-324.4 282,-324.4 366,-324.4 366,-324.4 372,-324.4 378,-330.4 378,-336.4 378,-336.4 378,-355.6 378,-355.6 378,-361.6 372,-367.6 366,-367.6"/>
<text text-anchor="middle" x="324" y="-340.95" font-family="Times New Roman,serif" font-size="14.00">Core Making</text>
</g>
<!-- design&#45;&gt;core -->
<g id="edge1" class="edge">
<title>design&#45;&gt;core</title>
<path fill="none" stroke="black" d="M251.37,-346C253.76,-346 256.16,-346 258.57,-346"/>
<polygon fill="black" stroke="black" points="258.29,-349.5 268.29,-346 258.29,-342.5 258.29,-349.5"/>
</g>
<!-- raw -->
<g id="node2" class="node">
<title>raw</title>
<path fill="#e1f5fe" stroke="black" d="M112,-306.6C112,-306.6 28,-306.6 28,-306.6 22,-306.6 16,-300.6 16,-294.6 16,-294.6 16,-275.4 16,-275.4 16,-269.4 22,-263.4 28,-263.4 28,-263.4 112,-263.4 112,-263.4 118,-263.4 124,-269.4 124,-275.4 124,-275.4 124,-294.6 124,-294.6 124,-300.6 118,-306.6 112,-306.6"/>
<text text-anchor="middle" x="70" y="-279.95" font-family="Times New Roman,serif" font-size="14.00">Raw Materials</text>
</g>
<!-- refining -->
<g id="node4" class="node">
<title>refining</title>
<path fill="#e1f5fe" stroke="black" d="M239,-306.6C239,-306.6 155,-306.6 155,-306.6 149,-306.6 143,-300.6 143,-294.6 143,-294.6 143,-275.4 143,-275.4 143,-269.4 149,-263.4 155,-263.4 155,-263.4 239,-263.4 239,-263.4 245,-263.4 251,-269.4 251,-275.4 251,-275.4 251,-294.6 251,-294.6 251,-300.6 245,-306.6 239,-306.6"/>
<text text-anchor="middle" x="197" y="-279.95" font-family="Times New Roman,serif" font-size="14.00">Refining</text>
</g>
<!-- raw&#45;&gt;refining -->
<g id="edge2" class="edge">
<title>raw&#45;&gt;refining</title>
<path fill="none" stroke="black" d="M124.37,-285C126.76,-285 129.16,-285 131.57,-285"/>
<polygon fill="black" stroke="black" points="131.29,-288.5 141.29,-285 131.29,-281.5 131.29,-288.5"/>
</g>
<!-- mold -->
<g id="node5" class="node">
<title>mold</title>
<path fill="#e1f5fe" stroke="black" d="M493,-367.6C493,-367.6 409,-367.6 409,-367.6 403,-367.6 397,-361.6 397,-355.6 397,-355.6 397,-336.4 397,-336.4 397,-330.4 403,-324.4 409,-324.4 409,-324.4 493,-324.4 493,-324.4 499,-324.4 505,-330.4 505,-336.4 505,-336.4 505,-355.6 505,-355.6 505,-361.6 499,-367.6 493,-367.6"/>
<text text-anchor="middle" x="451" y="-340.95" font-family="Times New Roman,serif" font-size="14.00">Mold Making</text>
</g>
<!-- core&#45;&gt;mold -->
<g id="edge3" class="edge">
<title>core&#45;&gt;mold</title>
<path fill="none" stroke="black" d="M378.37,-346C380.76,-346 383.16,-346 385.57,-346"/>
<polygon fill="black" stroke="black" points="385.29,-349.5 395.29,-346 385.29,-342.5 385.29,-349.5"/>
</g>
<!-- melting -->
<g id="node6" class="node">
<title>melting</title>
<path fill="#e1f5fe" stroke="black" d="M366,-306.6C366,-306.6 282,-306.6 282,-306.6 276,-306.6 270,-300.6 270,-294.6 270,-294.6 270,-275.4 270,-275.4 270,-269.4 276,-263.4 282,-263.4 282,-263.4 366,-263.4 366,-263.4 372,-263.4 378,-269.4 378,-275.4 378,-275.4 378,-294.6 378,-294.6 378,-300.6 372,-306.6 366,-306.6"/>
<text text-anchor="middle" x="324" y="-279.95" font-family="Times New Roman,serif" font-size="14.00">Melting</text>
</g>
<!-- refining&#45;&gt;melting -->
<g id="edge4" class="edge">
<title>refining&#45;&gt;melting</title>
<path fill="none" stroke="black" d="M251.37,-285C253.76,-285 256.16,-285 258.57,-285"/>
<polygon fill="black" stroke="black" points="258.29,-288.5 268.29,-285 258.29,-281.5 258.29,-288.5"/>
</g>
<!-- casting -->
<g id="node8" class="node">
<title>casting</title>
<path fill="#e1f5fe" stroke="black" d="M701.5,-306.6C701.5,-306.6 617.5,-306.6 617.5,-306.6 611.5,-306.6 605.5,-300.6 605.5,-294.6 605.5,-294.6 605.5,-275.4 605.5,-275.4 605.5,-269.4 611.5,-263.4 617.5,-263.4 617.5,-263.4 701.5,-263.4 701.5,-263.4 707.5,-263.4 713.5,-269.4 713.5,-275.4 713.5,-275.4 713.5,-294.6 713.5,-294.6 713.5,-300.6 707.5,-306.6 701.5,-306.6"/>
<text text-anchor="middle" x="659.5" y="-279.95" font-family="Times New Roman,serif" font-size="14.00">Casting</text>
</g>
<!-- mold&#45;&gt;casting -->
<g id="edge6" class="edge">
<title>mold&#45;&gt;casting</title>
<path fill="none" stroke="black" d="M495.23,-323.98C498.69,-321.5 502,-318.83 505,-316 510.38,-310.92 507.73,-305.92 514,-302 517.59,-299.76 557.09,-295.2 593.87,-291.36"/>
<polygon fill="black" stroke="black" points="594.07,-294.86 603.66,-290.36 593.35,-287.9 594.07,-294.86"/>
</g>
<!-- molten -->
<g id="node7" class="node">
<title>molten</title>
<path fill="#e1f5fe" stroke="black" d="M493,-306.6C493,-306.6 409,-306.6 409,-306.6 403,-306.6 397,-300.6 397,-294.6 397,-294.6 397,-275.4 397,-275.4 397,-269.4 403,-263.4 409,-263.4 409,-263.4 493,-263.4 493,-263.4 499,-263.4 505,-269.4 505,-275.4 505,-275.4 505,-294.6 505,-294.6 505,-300.6 499,-306.6 493,-306.6"/>
<text text-anchor="middle" x="451" y="-288.2" font-family="Times New Roman,serif" font-size="14.00">Molten Metal</text>
<text text-anchor="middle" x="451" y="-271.7" font-family="Times New Roman,serif" font-size="14.00">Handling</text>
</g>
<!-- melting&#45;&gt;molten -->
<g id="edge5" class="edge">
<title>melting&#45;&gt;molten</title>
<path fill="none" stroke="black" d="M378.37,-285C380.76,-285 383.16,-285 385.57,-285"/>
<polygon fill="black" stroke="black" points="385.29,-288.5 395.29,-285 385.29,-281.5 385.29,-288.5"/>
</g>
<!-- sensor_network -->
<g id="node13" class="node">
<title>sensor_network</title>
<ellipse fill="#fff3e0" stroke="black" cx="1501.55" cy="-196" rx="70.8" ry="18"/>
<text text-anchor="middle" x="1501.55" y="-190.95" font-family="Times New Roman,serif" font-size="14.00">Sensor Network</text>
</g>
<!-- melting&#45;&gt;sensor_network -->
<g id="edge15" class="edge">
<title>melting&#45;&gt;sensor_network</title>
<path fill="none" stroke="black" d="M333.02,-263.13C348.86,-224.22 388.1,-147 450,-147 450,-147 450,-147 1275.5,-147 1335.71,-147 1402.96,-163.95 1448.13,-177.92"/>
<polygon fill="black" stroke="black" points="1446.8,-181.17 1457.39,-180.84 1448.91,-174.49 1446.8,-181.17"/>
<text text-anchor="middle" x="868" y="-150.2" font-family="Times New Roman,serif" font-size="14.00">generates data</text>
</g>
<!-- molten&#45;&gt;casting -->
<g id="edge7" class="edge">
<title>molten&#45;&gt;casting</title>
<path fill="none" stroke="black" d="M505.45,-285C532.44,-285 565.41,-285 593.82,-285"/>
<polygon fill="black" stroke="black" points="593.76,-288.5 603.76,-285 593.76,-281.5 593.76,-288.5"/>
</g>
<!-- molten&#45;&gt;sensor_network -->
<g id="edge16" class="edge">
<title>molten&#45;&gt;sensor_network</title>
<path fill="none" stroke="black" d="M480.27,-262.96C518.46,-235.46 589.69,-192 658.5,-192 658.5,-192 658.5,-192 1275.5,-192 1323.2,-192 1376.57,-192.91 1419.37,-193.86"/>
<polygon fill="black" stroke="black" points="1419.27,-197.36 1429.35,-194.09 1419.43,-190.36 1419.27,-197.36"/>
<text text-anchor="middle" x="969.62" y="-195.2" font-family="Times New Roman,serif" font-size="14.00">generates data</text>
</g>
<!-- fettling -->
<g id="node9" class="node">
<title>fettling</title>
<path fill="#e1f5fe" stroke="black" d="M910,-309.6C910,-309.6 826,-309.6 826,-309.6 820,-309.6 814,-303.6 814,-297.6 814,-297.6 814,-278.4 814,-278.4 814,-272.4 820,-266.4 826,-266.4 826,-266.4 910,-266.4 910,-266.4 916,-266.4 922,-272.4 922,-278.4 922,-278.4 922,-297.6 922,-297.6 922,-303.6 916,-309.6 910,-309.6"/>
<text text-anchor="middle" x="868" y="-282.95" font-family="Times New Roman,serif" font-size="14.00">Fettling</text>
</g>
<!-- casting&#45;&gt;fettling -->
<g id="edge8" class="edge">
<title>casting&#45;&gt;fettling</title>
<path fill="none" stroke="black" d="M713.95,-285.78C740.94,-286.17 773.91,-286.65 802.32,-287.06"/>
<polygon fill="black" stroke="black" points="802.21,-290.56 812.26,-287.2 802.32,-283.56 802.21,-290.56"/>
</g>
<!-- casting&#45;&gt;sensor_network -->
<g id="edge17" class="edge">
<title>casting&#45;&gt;sensor_network</title>
<path fill="none" stroke="black" d="M713.66,-266.02C754.93,-252.97 813.87,-238 867,-238 867,-238 867,-238 1275.5,-238 1333.39,-238 1398.26,-224.4 1443.43,-212.68"/>
<polygon fill="black" stroke="black" points="1444.24,-216.09 1453.01,-210.14 1442.44,-209.32 1444.24,-216.09"/>
<text text-anchor="middle" x="1071.25" y="-241.2" font-family="Times New Roman,serif" font-size="14.00">generates data</text>
</g>
<!-- fettling&#45;&gt;melting -->
<g id="edge12" class="edge">
<title>fettling&#45;&gt;melting</title>
<path fill="none" stroke="black" d="M813.76,-293.56C786.15,-297.27 752.1,-303.12 722.5,-312 718.31,-313.26 717.74,-314.92 713.5,-316 670.4,-327.02 547.24,-302.94 514,-332.5 498.92,-345.91 520.62,-364.22 505,-377 467.85,-407.39 435.59,-405.54 397,-377 373.83,-359.86 396.04,-337.47 378,-315 377.93,-314.91 377.85,-314.81 377.78,-314.72"/>
<polygon fill="black" stroke="black" points="380.48,-312.48 370.94,-307.88 375.53,-317.43 380.48,-312.48"/>
<text text-anchor="middle" x="555.25" y="-335.7" font-family="Times New Roman,serif" font-size="14.00">removed metal</text>
</g>
<!-- grinding -->
<g id="node10" class="node">
<title>grinding</title>
<path fill="#e1f5fe" stroke="black" d="M1113.25,-354.6C1113.25,-354.6 1029.25,-354.6 1029.25,-354.6 1023.25,-354.6 1017.25,-348.6 1017.25,-342.6 1017.25,-342.6 1017.25,-323.4 1017.25,-323.4 1017.25,-317.4 1023.25,-311.4 1029.25,-311.4 1029.25,-311.4 1113.25,-311.4 1113.25,-311.4 1119.25,-311.4 1125.25,-317.4 1125.25,-323.4 1125.25,-323.4 1125.25,-342.6 1125.25,-342.6 1125.25,-348.6 1119.25,-354.6 1113.25,-354.6"/>
<text text-anchor="middle" x="1071.25" y="-327.95" font-family="Times New Roman,serif" font-size="14.00">Grinding</text>
</g>
<!-- fettling&#45;&gt;grinding -->
<g id="edge9" class="edge">
<title>fettling&#45;&gt;grinding</title>
<path fill="none" stroke="black" d="M922.4,-299.94C948.09,-305.69 979.09,-312.62 1006.06,-318.65"/>
<polygon fill="black" stroke="black" points="1004.95,-321.98 1015.47,-320.75 1006.47,-315.15 1004.95,-321.98"/>
</g>
<!-- fettling&#45;&gt;sensor_network -->
<g id="edge18" class="edge">
<title>fettling&#45;&gt;sensor_network</title>
<path fill="none" stroke="black" d="M922.24,-293.23C1021.87,-301.13 1242.04,-309.63 1414.75,-252 1435.34,-245.13 1455.8,-232.08 1471.57,-220.31"/>
<polygon fill="black" stroke="black" points="1473.31,-223.39 1479.09,-214.5 1469.03,-217.85 1473.31,-223.39"/>
<text text-anchor="middle" x="1172.87" y="-300.46" font-family="Times New Roman,serif" font-size="14.00">generates data</text>
</g>
<!-- grinding&#45;&gt;melting -->
<g id="edge13" class="edge">
<title>grinding&#45;&gt;melting</title>
<path fill="none" stroke="black" d="M1016.92,-330.14C963.38,-327.42 878.5,-323.52 805,-322 768.34,-321.24 758.88,-317.45 722.5,-322 710.64,-323.48 523.31,-367.5 514,-375 507.03,-380.61 512.61,-388.3 505,-393 464.17,-418.24 437.14,-419.32 397,-393 369.73,-375.12 393.49,-349.21 376.69,-316.35"/>
<polygon fill="black" stroke="black" points="379.86,-314.82 371.6,-308.19 373.92,-318.52 379.86,-314.82"/>
<text text-anchor="middle" x="659.5" y="-352.02" font-family="Times New Roman,serif" font-size="14.00">removed metal</text>
</g>
<!-- inspection -->
<g id="node11" class="node">
<title>inspection</title>
<path fill="#e1f5fe" stroke="black" d="M1316.5,-406.6C1316.5,-406.6 1232.5,-406.6 1232.5,-406.6 1226.5,-406.6 1220.5,-400.6 1220.5,-394.6 1220.5,-394.6 1220.5,-375.4 1220.5,-375.4 1220.5,-369.4 1226.5,-363.4 1232.5,-363.4 1232.5,-363.4 1316.5,-363.4 1316.5,-363.4 1322.5,-363.4 1328.5,-369.4 1328.5,-375.4 1328.5,-375.4 1328.5,-394.6 1328.5,-394.6 1328.5,-400.6 1322.5,-406.6 1316.5,-406.6"/>
<text text-anchor="middle" x="1274.5" y="-379.95" font-family="Times New Roman,serif" font-size="14.00">Inspection</text>
</g>
<!-- grinding&#45;&gt;inspection -->
<g id="edge10" class="edge">
<title>grinding&#45;&gt;inspection</title>
<path fill="none" stroke="black" d="M1125.55,-342.81C1149,-347.5 1177.03,-353.63 1209.16,-362.49"/>
<polygon fill="black" stroke="black" points="1208.18,-365.85 1218.75,-365.19 1210.07,-359.11 1208.18,-365.85"/>
</g>
<!-- grinding&#45;&gt;sensor_network -->
<g id="edge19" class="edge">
<title>grinding&#45;&gt;sensor_network</title>
<path fill="none" stroke="black" d="M1125.61,-334.91C1211.29,-336.77 1374.07,-335.02 1414.75,-297 1429.91,-282.83 1411.66,-268.54 1422.75,-251 1431.13,-237.74 1443.98,-226.76 1456.83,-218.19"/>
<polygon fill="black" stroke="black" points="1458.67,-221.16 1465.31,-212.9 1454.97,-215.22 1458.67,-221.16"/>
<text text-anchor="middle" x="1274.5" y="-337.8" font-family="Times New Roman,serif" font-size="14.00">generates data</text>
</g>
<!-- inspection&#45;&gt;melting -->
<g id="edge14" class="edge">
<title>inspection&#45;&gt;melting</title>
<path fill="none" stroke="black" d="M1220.16,-404.74C1075.31,-454.75 667.4,-571.25 397,-408 363.56,-387.81 395.82,-355.37 376.61,-316.32"/>
<polygon fill="black" stroke="black" points="379.84,-314.9 371.72,-308.11 373.83,-318.49 379.84,-314.9"/>
<text text-anchor="middle" x="763.75" y="-495.12" font-family="Times New Roman,serif" font-size="14.00">removed metal</text>
</g>
<!-- packaging -->
<g id="node12" class="node">
<title>packaging</title>
<path fill="#e1f5fe" stroke="black" d="M1543.55,-406.6C1543.55,-406.6 1459.55,-406.6 1459.55,-406.6 1453.55,-406.6 1447.55,-400.6 1447.55,-394.6 1447.55,-394.6 1447.55,-375.4 1447.55,-375.4 1447.55,-369.4 1453.55,-363.4 1459.55,-363.4 1459.55,-363.4 1543.55,-363.4 1543.55,-363.4 1549.55,-363.4 1555.55,-369.4 1555.55,-375.4 1555.55,-375.4 1555.55,-394.6 1555.55,-394.6 1555.55,-400.6 1549.55,-406.6 1543.55,-406.6"/>
<text text-anchor="middle" x="1501.55" y="-388.2" font-family="Times New Roman,serif" font-size="14.00">Packaging and</text>
<text text-anchor="middle" x="1501.55" y="-371.7" font-family="Times New Roman,serif" font-size="14.00">Transport</text>
</g>
<!-- inspection&#45;&gt;packaging -->
<g id="edge11" class="edge">
<title>inspection&#45;&gt;packaging</title>
<path fill="none" stroke="black" d="M1328.83,-385C1360.95,-385 1402.05,-385 1436,-385"/>
<polygon fill="black" stroke="black" points="1435.7,-388.5 1445.7,-385 1435.7,-381.5 1435.7,-388.5"/>
</g>
<!-- inspection&#45;&gt;sensor_network -->
<g id="edge20" class="edge">
<title>inspection&#45;&gt;sensor_network</title>
<path fill="none" stroke="black" d="M1328.92,-367.29C1331.82,-366.34 1334.7,-365.41 1337.5,-364.5 1371.77,-353.4 1392.2,-368.08 1414.75,-340 1427.18,-324.52 1412.84,-268.21 1422.75,-251 1430.51,-237.52 1443.07,-226.52 1455.85,-218"/>
<polygon fill="black" stroke="black" points="1457.65,-221.01 1464.31,-212.77 1453.96,-215.06 1457.65,-221.01"/>
<text text-anchor="middle" x="1376.12" y="-367.7" font-family="Times New Roman,serif" font-size="14.00">generates data</text>
</g>
<!-- data_collection -->
<g id="node14" class="node">
<title>data_collection</title>
<ellipse fill="#fff3e0" stroke="black" cx="1690.81" cy="-196" rx="99.46" ry="18"/>
<text text-anchor="middle" x="1690.81" y="-190.95" font-family="Times New Roman,serif" font-size="14.00">Data Collection System</text>
</g>
<!-- sensor_network&#45;&gt;data_collection -->
<g id="edge22" class="edge">
<title>sensor_network&#45;&gt;data_collection</title>
<path fill="none" stroke="black" d="M1572.81,-196C1575.03,-196 1577.27,-196 1579.52,-196"/>
<polygon fill="black" stroke="black" points="1579.34,-199.5 1589.34,-196 1579.34,-192.5 1579.34,-199.5"/>
</g>
<!-- data_processing -->
<g id="node15" class="node">
<title>data_processing</title>
<ellipse fill="#fff3e0" stroke="black" cx="1880.07" cy="-196" rx="70.8" ry="18"/>
<text text-anchor="middle" x="1880.07" y="-190.95" font-family="Times New Roman,serif" font-size="14.00">Data Processing</text>
</g>
<!-- data_collection&#45;&gt;data_processing -->
<g id="edge23" class="edge">
<title>data_collection&#45;&gt;data_processing</title>
<path fill="none" stroke="black" d="M1790.65,-196C1792.96,-196 1795.26,-196 1797.56,-196"/>
<polygon fill="black" stroke="black" points="1797.4,-199.5 1807.4,-196 1797.4,-192.5 1797.4,-199.5"/>
</g>
<!-- lca -->
<g id="node16" class="node">
<title>lca</title>
<path fill="#f3e5f5" stroke="black" d="M2163.12,-335C2163.12,-335 2023.37,-335 2023.37,-335 2017.37,-335 2011.37,-329 2011.37,-323 2011.37,-323 2011.37,-311 2011.37,-311 2011.37,-305 2017.37,-299 2023.37,-299 2023.37,-299 2163.12,-299 2163.12,-299 2169.12,-299 2175.12,-305 2175.12,-311 2175.12,-311 2175.12,-323 2175.12,-323 2175.12,-329 2169.12,-335 2163.12,-335"/>
<text text-anchor="middle" x="2093.25" y="-311.95" font-family="Times New Roman,serif" font-size="14.00">Life Cycle Analysis Model</text>
</g>
<!-- data_processing&#45;&gt;lca -->
<g id="edge24" class="edge">
<title>data_processing&#45;&gt;lca</title>
<path fill="none" stroke="black" d="M1904.72,-213.33C1928.84,-230.6 1967.69,-257.32 2003.37,-277 2014.15,-282.94 2025.98,-288.74 2037.39,-293.99"/>
<polygon fill="black" stroke="black" points="2035.77,-297.1 2046.33,-298.02 2038.65,-290.72 2035.77,-297.1"/>
<text text-anchor="middle" x="1981.12" y="-274.35" font-family="Times New Roman,serif" font-size="14.00">feeds</text>
</g>
<!-- energy_analysis -->
<g id="node23" class="node">
<title>energy_analysis</title>
<path fill="#f3e5f5" stroke="black" d="M2133.87,-268C2133.87,-268 2052.62,-268 2052.62,-268 2046.62,-268 2040.62,-262 2040.62,-256 2040.62,-256 2040.62,-244 2040.62,-244 2040.62,-238 2046.62,-232 2052.62,-232 2052.62,-232 2133.87,-232 2133.87,-232 2139.87,-232 2145.87,-238 2145.87,-244 2145.87,-244 2145.87,-256 2145.87,-256 2145.87,-262 2139.87,-268 2133.87,-268"/>
<text text-anchor="middle" x="2093.25" y="-244.95" font-family="Times New Roman,serif" font-size="14.00">Energy Analysis</text>
</g>
<!-- data_processing&#45;&gt;energy_analysis -->
<g id="edge25" class="edge">
<title>data_processing&#45;&gt;energy_analysis</title>
<path fill="none" stroke="black" d="M1931.12,-208.8C1960.58,-216.33 1998.1,-225.92 2029.52,-233.96"/>
<polygon fill="black" stroke="black" points="2028.33,-237.27 2038.89,-236.36 2030.07,-230.49 2028.33,-237.27"/>
<text text-anchor="middle" x="1981.12" y="-227.82" font-family="Times New Roman,serif" font-size="14.00">feeds</text>
</g>
<!-- quality_analysis -->
<g id="node24" class="node">
<title>quality_analysis</title>
<path fill="#f3e5f5" stroke="black" d="M2134.62,-214C2134.62,-214 2051.87,-214 2051.87,-214 2045.87,-214 2039.87,-208 2039.87,-202 2039.87,-202 2039.87,-190 2039.87,-190 2039.87,-184 2045.87,-178 2051.87,-178 2051.87,-178 2134.62,-178 2134.62,-178 2140.62,-178 2146.62,-184 2146.62,-190 2146.62,-190 2146.62,-202 2146.62,-202 2146.62,-208 2140.62,-214 2134.62,-214"/>
<text text-anchor="middle" x="2093.25" y="-190.95" font-family="Times New Roman,serif" font-size="14.00">Quality Analysis</text>
</g>
<!-- data_processing&#45;&gt;quality_analysis -->
<g id="edge26" class="edge">
<title>data_processing&#45;&gt;quality_analysis</title>
<path fill="none" stroke="black" d="M1951.1,-196C1975.97,-196 2003.83,-196 2028.18,-196"/>
<polygon fill="black" stroke="black" points="2027.95,-199.5 2037.95,-196 2027.95,-192.5 2027.95,-199.5"/>
<text text-anchor="middle" x="1981.12" y="-199.2" font-family="Times New Roman,serif" font-size="14.00">feeds</text>
</g>
<!-- alerts -->
<g id="node28" class="node">
<title>alerts</title>
<polygon fill="#e8f5e9" stroke="black" points="2576.62,-193 2438.37,-193 2438.37,-189 2434.37,-189 2434.37,-185 2438.37,-185 2438.37,-165 2434.37,-165 2434.37,-161 2438.37,-161 2438.37,-157 2576.62,-157 2576.62,-193"/>
<polyline fill="none" stroke="black" points="2438.37,-189 2442.37,-189 2442.37,-185 2438.37,-185"/>
<polyline fill="none" stroke="black" points="2438.37,-165 2442.37,-165 2442.37,-161 2438.37,-161"/>
<text text-anchor="middle" x="2507.5" y="-169.95" font-family="Times New Roman,serif" font-size="14.00">Alerts &amp; Notifications</text>
</g>
<!-- data_processing&#45;&gt;alerts -->
<g id="edge43" class="edge">
<title>data_processing&#45;&gt;alerts</title>
<path fill="none" stroke="black" d="M1918.01,-180.47C1974.24,-157.77 2085.24,-116.56 2184.12,-101.5 2289.03,-85.52 2344.09,-45.36 2422.37,-117 2432.87,-126.61 2420.77,-137.5 2430.37,-148 2430.74,-148.4 2431.11,-148.8 2431.49,-149.18"/>
<polygon fill="black" stroke="black" points="2429.18,-151.81 2439.09,-155.55 2433.67,-146.45 2429.18,-151.81"/>
<text text-anchor="middle" x="2207.37" y="-104.7" font-family="Times New Roman,serif" font-size="14.00">triggers</text>
</g>
<!-- gwp -->
<g id="node17" class="node">
<title>gwp</title>
<path fill="#e1bee7" stroke="black" d="M2335.5,-514.5C2335.5,-514.5 2252,-514.5 2252,-514.5 2246,-514.5 2240,-508.5 2240,-502.5 2240,-502.5 2240,-485.5 2240,-485.5 2240,-479.5 2246,-473.5 2252,-473.5 2252,-473.5 2335.5,-473.5 2335.5,-473.5 2341.5,-473.5 2347.5,-479.5 2347.5,-485.5 2347.5,-485.5 2347.5,-502.5 2347.5,-502.5 2347.5,-508.5 2341.5,-514.5 2335.5,-514.5"/>
<text text-anchor="middle" x="2293.75" y="-497.2" font-family="Times New Roman,serif" font-size="14.00">Global Warming</text>
<text text-anchor="middle" x="2293.75" y="-480.7" font-family="Times New Roman,serif" font-size="14.00">Potential (GWP)</text>
</g>
<!-- lca&#45;&gt;gwp -->
<g id="edge27" class="edge">
<title>lca&#45;&gt;gwp</title>
<path fill="none" stroke="black" d="M2108.16,-335.45C2125,-357.23 2154.76,-394.03 2184.12,-422 2206.72,-443.52 2213.51,-447.91 2239.62,-465 2240.81,-465.78 2242.02,-466.55 2243.25,-467.32"/>
<polygon fill="black" stroke="black" points="2241.22,-470.19 2251.59,-472.36 2244.84,-464.2 2241.22,-470.19"/>
<text text-anchor="middle" x="2207.37" y="-461.69" font-family="Times New Roman,serif" font-size="14.00">analyzes</text>
</g>
<!-- ap -->
<g id="node18" class="node">
<title>ap</title>
<path fill="#e1bee7" stroke="black" d="M2328.75,-455.5C2328.75,-455.5 2258.75,-455.5 2258.75,-455.5 2252.75,-455.5 2246.75,-449.5 2246.75,-443.5 2246.75,-443.5 2246.75,-426.5 2246.75,-426.5 2246.75,-420.5 2252.75,-414.5 2258.75,-414.5 2258.75,-414.5 2328.75,-414.5 2328.75,-414.5 2334.75,-414.5 2340.75,-420.5 2340.75,-426.5 2340.75,-426.5 2340.75,-443.5 2340.75,-443.5 2340.75,-449.5 2334.75,-455.5 2328.75,-455.5"/>
<text text-anchor="middle" x="2293.75" y="-438.2" font-family="Times New Roman,serif" font-size="14.00">Acidification</text>
<text text-anchor="middle" x="2293.75" y="-421.7" font-family="Times New Roman,serif" font-size="14.00">Potential (AP)</text>
</g>
<!-- lca&#45;&gt;ap -->
<g id="edge29" class="edge">
<title>lca&#45;&gt;ap</title>
<path fill="none" stroke="black" d="M2120.16,-335.28C2137.88,-347.54 2162.07,-363.8 2184.12,-377 2202.38,-387.93 2222.85,-399.13 2241.07,-408.73"/>
<polygon fill="black" stroke="black" points="2239.39,-411.8 2249.87,-413.34 2242.63,-405.6 2239.39,-411.8"/>
<text text-anchor="middle" x="2207.37" y="-405.13" font-family="Times New Roman,serif" font-size="14.00">analyzes</text>
</g>
<!-- ep -->
<g id="node19" class="node">
<title>ep</title>
<path fill="#e1bee7" stroke="black" d="M2329.87,-396.5C2329.87,-396.5 2257.62,-396.5 2257.62,-396.5 2251.62,-396.5 2245.62,-390.5 2245.62,-384.5 2245.62,-384.5 2245.62,-367.5 2245.62,-367.5 2245.62,-361.5 2251.62,-355.5 2257.62,-355.5 2257.62,-355.5 2329.87,-355.5 2329.87,-355.5 2335.87,-355.5 2341.87,-361.5 2341.87,-367.5 2341.87,-367.5 2341.87,-384.5 2341.87,-384.5 2341.87,-390.5 2335.87,-396.5 2329.87,-396.5"/>
<text text-anchor="middle" x="2293.75" y="-379.2" font-family="Times New Roman,serif" font-size="14.00">Eutrophication</text>
<text text-anchor="middle" x="2293.75" y="-362.7" font-family="Times New Roman,serif" font-size="14.00">Potential (EP)</text>
</g>
<!-- lca&#45;&gt;ep -->
<g id="edge31" class="edge">
<title>lca&#45;&gt;ep</title>
<path fill="none" stroke="black" d="M2156.24,-335.43C2181.2,-342.84 2209.83,-351.35 2234.41,-358.66"/>
<polygon fill="black" stroke="black" points="2233.35,-362 2243.94,-361.49 2235.35,-355.29 2233.35,-362"/>
<text text-anchor="middle" x="2207.37" y="-360.12" font-family="Times New Roman,serif" font-size="14.00">analyzes</text>
</g>
<!-- odp -->
<g id="node20" class="node">
<title>odp</title>
<path fill="#e1bee7" stroke="black" d="M2335.87,-337.5C2335.87,-337.5 2251.62,-337.5 2251.62,-337.5 2245.62,-337.5 2239.62,-331.5 2239.62,-325.5 2239.62,-325.5 2239.62,-308.5 2239.62,-308.5 2239.62,-302.5 2245.62,-296.5 2251.62,-296.5 2251.62,-296.5 2335.87,-296.5 2335.87,-296.5 2341.87,-296.5 2347.87,-302.5 2347.87,-308.5 2347.87,-308.5 2347.87,-325.5 2347.87,-325.5 2347.87,-331.5 2341.87,-337.5 2335.87,-337.5"/>
<text text-anchor="middle" x="2293.75" y="-320.2" font-family="Times New Roman,serif" font-size="14.00">Ozone Depletion</text>
<text text-anchor="middle" x="2293.75" y="-303.7" font-family="Times New Roman,serif" font-size="14.00">Potential (ODP)</text>
</g>
<!-- lca&#45;&gt;odp -->
<g id="edge33" class="edge">
<title>lca&#45;&gt;odp</title>
<path fill="none" stroke="black" d="M2175.56,-317C2193.04,-317 2211.3,-317 2228.05,-317"/>
<polygon fill="black" stroke="black" points="2227.87,-320.5 2237.87,-317 2227.87,-313.5 2227.87,-320.5"/>
<text text-anchor="middle" x="2207.37" y="-320.2" font-family="Times New Roman,serif" font-size="14.00">analyzes</text>
</g>
<!-- htp -->
<g id="node21" class="node">
<title>htp</title>
<path fill="#e1bee7" stroke="black" d="M2334,-278.5C2334,-278.5 2253.5,-278.5 2253.5,-278.5 2247.5,-278.5 2241.5,-272.5 2241.5,-266.5 2241.5,-266.5 2241.5,-249.5 2241.5,-249.5 2241.5,-243.5 2247.5,-237.5 2253.5,-237.5 2253.5,-237.5 2334,-237.5 2334,-237.5 2340,-237.5 2346,-243.5 2346,-249.5 2346,-249.5 2346,-266.5 2346,-266.5 2346,-272.5 2340,-278.5 2334,-278.5"/>
<text text-anchor="middle" x="2293.75" y="-261.2" font-family="Times New Roman,serif" font-size="14.00">Human Toxicity</text>
<text text-anchor="middle" x="2293.75" y="-244.7" font-family="Times New Roman,serif" font-size="14.00">Potential (HTP)</text>
</g>
<!-- lca&#45;&gt;htp -->
<g id="edge35" class="edge">
<title>lca&#45;&gt;htp</title>
<path fill="none" stroke="black" d="M2156.24,-298.57C2179.81,-291.57 2206.65,-283.59 2230.27,-276.57"/>
<polygon fill="black" stroke="black" points="2231.18,-279.95 2239.77,-273.75 2229.18,-273.24 2231.18,-279.95"/>
<text text-anchor="middle" x="2207.37" y="-292.47" font-family="Times New Roman,serif" font-size="14.00">analyzes</text>
</g>
<!-- etp -->
<g id="node22" class="node">
<title>etp</title>
<path fill="#e1bee7" stroke="black" d="M2320.87,-219.5C2320.87,-219.5 2266.62,-219.5 2266.62,-219.5 2260.62,-219.5 2254.62,-213.5 2254.62,-207.5 2254.62,-207.5 2254.62,-190.5 2254.62,-190.5 2254.62,-184.5 2260.62,-178.5 2266.62,-178.5 2266.62,-178.5 2320.87,-178.5 2320.87,-178.5 2326.87,-178.5 2332.87,-184.5 2332.87,-190.5 2332.87,-190.5 2332.87,-207.5 2332.87,-207.5 2332.87,-213.5 2326.87,-219.5 2320.87,-219.5"/>
<text text-anchor="middle" x="2293.75" y="-202.2" font-family="Times New Roman,serif" font-size="14.00">Ecotoxicity</text>
<text text-anchor="middle" x="2293.75" y="-185.7" font-family="Times New Roman,serif" font-size="14.00">Potential</text>
</g>
<!-- lca&#45;&gt;etp -->
<g id="edge37" class="edge">
<title>lca&#45;&gt;etp</title>
<path fill="none" stroke="black" d="M2144.93,-298.69C2155.88,-293 2166.68,-285.83 2175.12,-277 2182,-269.81 2177.35,-263.79 2184.12,-256.5 2200.39,-239 2223.21,-225.81 2243.74,-216.5"/>
<polygon fill="black" stroke="black" points="2245.03,-219.76 2252.83,-212.59 2242.26,-213.33 2245.03,-219.76"/>
<text text-anchor="middle" x="2207.37" y="-259.7" font-family="Times New Roman,serif" font-size="14.00">analyzes</text>
</g>
<!-- visualization -->
<g id="node26" class="node">
<title>visualization</title>
<polygon fill="#e8f5e9" stroke="black" points="2565.37,-247 2449.62,-247 2449.62,-243 2445.62,-243 2445.62,-239 2449.62,-239 2449.62,-219 2445.62,-219 2445.62,-215 2449.62,-215 2449.62,-211 2565.37,-211 2565.37,-247"/>
<polyline fill="none" stroke="black" points="2449.62,-243 2453.62,-243 2453.62,-239 2449.62,-239"/>
<polyline fill="none" stroke="black" points="2449.62,-219 2453.62,-219 2453.62,-215 2449.62,-215"/>
<text text-anchor="middle" x="2507.5" y="-223.95" font-family="Times New Roman,serif" font-size="14.00">Data Visualization</text>
</g>
<!-- gwp&#45;&gt;visualization -->
<g id="edge28" class="edge">
<title>gwp&#45;&gt;visualization</title>
<path fill="none" stroke="black" d="M2347.71,-475.55C2373.22,-464.36 2402.5,-447.78 2422.37,-425 2465.8,-375.22 2489.55,-299.64 2499.96,-258.39"/>
<polygon fill="black" stroke="black" points="2503.36,-259.25 2502.31,-248.71 2496.55,-257.61 2503.36,-259.25"/>
<text text-anchor="middle" x="2393.12" y="-470.08" font-family="Times New Roman,serif" font-size="14.00">displays in</text>
</g>
<!-- ap&#45;&gt;visualization -->
<g id="edge30" class="edge">
<title>ap&#45;&gt;visualization</title>
<path fill="none" stroke="black" d="M2341.1,-416.53C2367.35,-404.32 2399.41,-386.27 2422.37,-363 2453.51,-331.45 2478.82,-286.42 2493.28,-257.45"/>
<polygon fill="black" stroke="black" points="2496.38,-259.08 2497.61,-248.56 2490.09,-256.01 2496.38,-259.08"/>
<text text-anchor="middle" x="2393.12" y="-407.98" font-family="Times New Roman,serif" font-size="14.00">displays in</text>
</g>
<!-- ep&#45;&gt;visualization -->
<g id="edge32" class="edge">
<title>ep&#45;&gt;visualization</title>
<path fill="none" stroke="black" d="M2339.62,-355.05C2345.11,-352.38 2350.64,-349.66 2355.87,-347 2385.84,-331.79 2395.3,-330.92 2422.37,-311 2444.48,-294.74 2466.58,-272.92 2482.58,-255.87"/>
<polygon fill="black" stroke="black" points="2485.12,-258.29 2489.34,-248.56 2479.98,-253.54 2485.12,-258.29"/>
<text text-anchor="middle" x="2393.12" y="-346.03" font-family="Times New Roman,serif" font-size="14.00">displays in</text>
</g>
<!-- odp&#45;&gt;visualization -->
<g id="edge34" class="edge">
<title>odp&#45;&gt;visualization</title>
<path fill="none" stroke="black" d="M2348.16,-297.41C2371.14,-288.75 2398.22,-278.22 2422.37,-268 2433.95,-263.1 2446.29,-257.56 2457.86,-252.23"/>
<polygon fill="black" stroke="black" points="2459.25,-255.44 2466.84,-248.05 2456.3,-249.09 2459.25,-255.44"/>
<text text-anchor="middle" x="2393.12" y="-293.55" font-family="Times New Roman,serif" font-size="14.00">displays in</text>
</g>
<!-- htp&#45;&gt;visualization -->
<g id="edge36" class="edge">
<title>htp&#45;&gt;visualization</title>
<path fill="none" stroke="black" d="M2346.28,-250.94C2373.85,-247.17 2408.17,-242.47 2437.96,-238.39"/>
<polygon fill="black" stroke="black" points="2438.2,-241.89 2447.64,-237.06 2437.25,-234.95 2438.2,-241.89"/>
<text text-anchor="middle" x="2393.12" y="-250.99" font-family="Times New Roman,serif" font-size="14.00">displays in</text>
</g>
<!-- etp&#45;&gt;visualization -->
<g id="edge38" class="edge">
<title>etp&#45;&gt;visualization</title>
<path fill="none" stroke="black" d="M2333.09,-204.43C2362.35,-208.58 2403.4,-214.39 2438.22,-219.33"/>
<polygon fill="black" stroke="black" points="2437.39,-222.74 2447.78,-220.68 2438.37,-215.81 2437.39,-222.74"/>
<text text-anchor="middle" x="2393.12" y="-219.89" font-family="Times New Roman,serif" font-size="14.00">displays in</text>
</g>
<!-- energy_analysis&#45;&gt;visualization -->
<g id="edge39" class="edge">
<title>energy_analysis&#45;&gt;visualization</title>
<path fill="none" stroke="black" d="M2146.07,-237C2156.13,-233.31 2166.29,-228.69 2175.12,-223 2210.55,-200.17 2201,-170.35 2239.62,-153.5 2286.98,-132.84 2306.34,-138.8 2355.87,-153.5 2393.75,-164.74 2394.95,-184.5 2430.37,-202 2433.26,-203.43 2436.24,-204.82 2439.28,-206.16"/>
<polygon fill="black" stroke="black" points="2437.78,-209.33 2448.36,-209.97 2440.5,-202.87 2437.78,-209.33"/>
<text text-anchor="middle" x="2293.75" y="-156.7" font-family="Times New Roman,serif" font-size="14.00">displays in</text>
</g>
<!-- quality_analysis&#45;&gt;visualization -->
<g id="edge40" class="edge">
<title>quality_analysis&#45;&gt;visualization</title>
<path fill="none" stroke="black" d="M2119.74,-177.64C2147.61,-158.79 2194.35,-130.68 2239.62,-119.5 2289.78,-107.11 2305.54,-107.86 2355.87,-119.5 2387.92,-126.91 2402.8,-125.56 2422.37,-152 2435.77,-170.09 2415.97,-184.71 2430.37,-202 2433.09,-205.26 2436.23,-208.13 2439.65,-210.65"/>
<polygon fill="black" stroke="black" points="2437.64,-213.53 2448,-215.76 2441.3,-207.56 2437.64,-213.53"/>
<text text-anchor="middle" x="2293.75" y="-122.7" font-family="Times New Roman,serif" font-size="14.00">displays in</text>
</g>
<!-- dashboard -->
<g id="node25" class="node">
<title>dashboard</title>
<polygon fill="#e8f5e9" stroke="black" points="2810.87,-193 2674.87,-193 2674.87,-189 2670.87,-189 2670.87,-185 2674.87,-185 2674.87,-165 2670.87,-165 2670.87,-161 2674.87,-161 2674.87,-157 2810.87,-157 2810.87,-193"/>
<polyline fill="none" stroke="black" points="2674.87,-189 2678.87,-189 2678.87,-185 2674.87,-185"/>
<polyline fill="none" stroke="black" points="2674.87,-165 2678.87,-165 2678.87,-161 2674.87,-161"/>
<text text-anchor="middle" x="2742.87" y="-169.95" font-family="Times New Roman,serif" font-size="14.00">Interactive Dashboard</text>
</g>
<!-- visualization&#45;&gt;dashboard -->
<g id="edge41" class="edge">
<title>visualization&#45;&gt;dashboard</title>
<path fill="none" stroke="black" d="M2565.7,-213.46C2572.4,-211.74 2579.16,-210.05 2585.62,-208.5 2610.77,-202.47 2638.32,-196.38 2663.2,-191.09"/>
<polygon fill="black" stroke="black" points="2663.88,-194.52 2672.94,-189.03 2662.43,-187.67 2663.88,-194.52"/>
<text text-anchor="middle" x="2625.75" y="-211.7" font-family="Times New Roman,serif" font-size="14.00">integrates with</text>
</g>
<!-- reporting -->
<g id="node27" class="node">
<title>reporting</title>
<polygon fill="#e8f5e9" stroke="black" points="2803.75,-247 2682,-247 2682,-243 2678,-243 2678,-239 2682,-239 2682,-219 2678,-219 2678,-215 2682,-215 2682,-211 2803.75,-211 2803.75,-247"/>
<polyline fill="none" stroke="black" points="2682,-243 2686,-243 2686,-239 2682,-239"/>
<polyline fill="none" stroke="black" points="2682,-219 2686,-219 2686,-215 2682,-215"/>
<text text-anchor="middle" x="2742.87" y="-223.95" font-family="Times New Roman,serif" font-size="14.00">Reporting Interface</text>
</g>
<!-- visualization&#45;&gt;reporting -->
<g id="edge42" class="edge">
<title>visualization&#45;&gt;reporting</title>
<path fill="none" stroke="black" d="M2565.59,-229C2597.23,-229 2636.87,-229 2670.54,-229"/>
<polygon fill="black" stroke="black" points="2670.19,-232.5 2680.19,-229 2670.19,-225.5 2670.19,-232.5"/>
<text text-anchor="middle" x="2625.75" y="-232.2" font-family="Times New Roman,serif" font-size="14.00">generates</text>
</g>
<!-- user_input -->
<g id="node29" class="node">
<title>user_input</title>
<polygon fill="#e8f5e9" stroke="black" points="2570.25,-139 2444.75,-139 2444.75,-135 2440.75,-135 2440.75,-131 2444.75,-131 2444.75,-111 2440.75,-111 2440.75,-107 2444.75,-107 2444.75,-103 2570.25,-103 2570.25,-139"/>
<polyline fill="none" stroke="black" points="2444.75,-135 2448.75,-135 2448.75,-131 2444.75,-131"/>
<polyline fill="none" stroke="black" points="2444.75,-111 2448.75,-111 2448.75,-107 2444.75,-107"/>
<text text-anchor="middle" x="2507.5" y="-115.95" font-family="Times New Roman,serif" font-size="14.00">User Input Interface</text>
</g>
<!-- user_input&#45;&gt;data_collection -->
<g id="edge21" class="edge">
<title>user_input&#45;&gt;data_collection</title>
<path fill="none" stroke="black" d="M2489.18,-102.62C2455.32,-68.77 2376.47,0 2294.75,0 1879.07,0 1879.07,0 1879.07,0 1787.49,0 1726.94,-113.25 1703.16,-167.58"/>
<polygon fill="black" stroke="black" points="1700.05,-165.95 1699.36,-176.52 1706.49,-168.68 1700.05,-165.95"/>
<text text-anchor="middle" x="2093.25" y="-3.2" font-family="Times New Roman,serif" font-size="14.00">manual data entry</text>
</g>
</g>
</svg>
