<?xml version="1.0" encoding="UTF-8" standalone="no"?>
<!DOCTYPE svg PUBLIC "-//W3C//DTD SVG 1.1//EN"
 "http://www.w3.org/Graphics/SVG/1.1/DTD/svg11.dtd">
<!-- Generated by graphviz version 12.2.0 (20241103.1931)
 -->
<!-- Pages: 1 -->
<svg width="1726pt" height="1379pt"
 viewBox="0.00 0.00 1726.25 1378.50" xmlns="http://www.w3.org/2000/svg" xmlns:xlink="http://www.w3.org/1999/xlink">
<g id="graph0" class="graph" transform="scale(1 1) rotate(0) translate(4 1374.5)">
<polygon fill="white" stroke="none" points="-4,4 -4,-1374.5 1722.25,-1374.5 1722.25,4 -4,4"/>
<g id="clust1" class="cluster">
<title>cluster_io_master</title>
<polygon fill="none" stroke="#666666" stroke-width="2" stroke-dasharray="5,2" points="8,-854 8,-1017 1087,-1017 1087,-854 8,-854"/>
<text text-anchor="middle" x="547.5" y="-999.7" font-family="Times New Roman,serif" font-size="14.00">System Boundary</text>
</g>
<g id="clust2" class="cluster">
<title>cluster_input</title>
<polygon fill="#ffe5e5" stroke="#666666" points="521,-862 521,-984.5 1079,-984.5 1079,-862 521,-862"/>
<text text-anchor="middle" x="800" y="-967.2" font-family="Times New Roman,serif" font-size="14.00">Input</text>
</g>
<g id="clust3" class="cluster">
<title>cluster_output</title>
<polygon fill="#e5ffe5" stroke="#666666" points="16,-862 16,-984.5 513,-984.5 513,-862 16,-862"/>
<text text-anchor="middle" x="264.5" y="-967.2" font-family="Times New Roman,serif" font-size="14.00">Output</text>
</g>
<g id="clust4" class="cluster">
<title>cluster_0</title>
<polygon fill="none" stroke="black" points="1095,-669 1095,-1362.5 1424,-1362.5 1424,-669 1095,-669"/>
<text text-anchor="middle" x="1259.5" y="-1345.2" font-family="Times New Roman,serif" font-size="14.00">Production Process Layer</text>
</g>
<g id="clust5" class="cluster">
<title>cluster_1</title>
<polygon fill="none" stroke="black" points="1080,-412 1080,-634.5 1294,-634.5 1294,-412 1080,-412"/>
<text text-anchor="middle" x="1187" y="-617.2" font-family="Times New Roman,serif" font-size="14.00">Data Pipeline</text>
</g>
<g id="clust6" class="cluster">
<title>cluster_2</title>
<polygon fill="none" stroke="black" points="540,-207.5 540,-377.5 1234,-377.5 1234,-207.5 540,-207.5"/>
<text text-anchor="middle" x="887" y="-360.2" font-family="Times New Roman,serif" font-size="14.00">Analysis Layer</text>
</g>
<g id="clust7" class="cluster">
<title>cluster_3</title>
<polygon fill="none" stroke="black" points="937,-8 937,-173 1369,-173 1369,-8 937,-8"/>
<text text-anchor="middle" x="1153" y="-155.7" font-family="Times New Roman,serif" font-size="14.00">User Interface Layer</text>
</g>
<!-- coke -->
<g id="node1" class="node">
<title>coke</title>
<path fill="#ffcdd2" stroke="black" d="M718.93,-924.36C718.93,-924.36 698.12,-915.64 698.12,-915.64 692.59,-913.32 692.59,-908.68 698.12,-906.36 698.12,-906.36 718.93,-897.64 718.93,-897.64 724.47,-895.32 735.53,-895.32 741.07,-897.64 741.07,-897.64 761.88,-906.36 761.88,-906.36 767.41,-908.68 767.41,-913.32 761.88,-915.64 761.88,-915.64 741.07,-924.36 741.07,-924.36 735.53,-926.68 724.47,-926.68 718.93,-924.36"/>
<text text-anchor="middle" x="730" y="-905.95" font-family="Times New Roman,serif" font-size="14.00">Coke</text>
</g>
<!-- melting -->
<g id="node12" class="node">
<title>melting</title>
<path fill="#e1f5fe" stroke="black" d="M1264.75,-809C1264.75,-809 1229.25,-809 1229.25,-809 1223.25,-809 1217.25,-803 1217.25,-797 1217.25,-797 1217.25,-785 1217.25,-785 1217.25,-779 1223.25,-773 1229.25,-773 1229.25,-773 1264.75,-773 1264.75,-773 1270.75,-773 1276.75,-779 1276.75,-785 1276.75,-785 1276.75,-797 1276.75,-797 1276.75,-803 1270.75,-809 1264.75,-809"/>
<text text-anchor="middle" x="1247" y="-785.95" font-family="Times New Roman,serif" font-size="14.00">Melting</text>
</g>
<!-- coke&#45;&gt;melting -->
<g id="edge1" class="edge">
<title>coke&#45;&gt;melting</title>
<path fill="none" stroke="black" d="M738.29,-895.96C747.17,-882.42 762.65,-862.73 782,-854 814.63,-839.29 1069.02,-853.55 1104,-846 1122.4,-842.03 1125.23,-835.69 1143,-829.5 1168.43,-820.64 1178.05,-821.85 1206.58,-811.64"/>
<polygon fill="black" stroke="black" points="1207.48,-815.04 1215.61,-808.24 1205.02,-808.49 1207.48,-815.04"/>
<text text-anchor="middle" x="1153.5" y="-832.7" font-family="Times New Roman,serif" font-size="14.00">fuel</text>
</g>
<!-- electricity -->
<g id="node2" class="node">
<title>electricity</title>
<path fill="#ffcdd2" stroke="black" d="M587.38,-926C587.38,-926 540.89,-914 540.89,-914 535.08,-912.5 535.08,-909.5 540.89,-908 540.89,-908 587.38,-896 587.38,-896 593.19,-894.5 604.81,-894.5 610.62,-896 610.62,-896 657.11,-908 657.11,-908 662.92,-909.5 662.92,-912.5 657.11,-914 657.11,-914 610.62,-926 610.62,-926 604.81,-927.5 593.19,-927.5 587.38,-926"/>
<text text-anchor="middle" x="599" y="-905.95" font-family="Times New Roman,serif" font-size="14.00">Electricity</text>
</g>
<!-- electricity&#45;&gt;melting -->
<g id="edge2" class="edge">
<title>electricity&#45;&gt;melting</title>
<path fill="none" stroke="black" d="M612.95,-896.1C627.68,-882.46 652.3,-862.5 678,-854 715.67,-841.54 996.6,-855.97 1035,-846 1050.2,-842.05 1051.27,-834.23 1066.25,-829.5 1123.49,-811.41 1144.88,-827.93 1206.14,-811.38"/>
<polygon fill="black" stroke="black" points="1207.11,-814.74 1215.73,-808.58 1205.15,-808.02 1207.11,-814.74"/>
<text text-anchor="middle" x="1083.12" y="-832.7" font-family="Times New Roman,serif" font-size="14.00">power</text>
</g>
<!-- pig_iron -->
<g id="node3" class="node">
<title>pig_iron</title>
<path fill="#ffcdd2" stroke="black" d="M837.54,-925.45C837.54,-925.45 802.32,-914.55 802.32,-914.55 796.59,-912.77 796.59,-909.23 802.32,-907.45 802.32,-907.45 837.54,-896.55 837.54,-896.55 843.27,-894.77 854.73,-894.77 860.46,-896.55 860.46,-896.55 895.68,-907.45 895.68,-907.45 901.41,-909.23 901.41,-912.77 895.68,-914.55 895.68,-914.55 860.46,-925.45 860.46,-925.45 854.73,-927.23 843.27,-927.23 837.54,-925.45"/>
<text text-anchor="middle" x="849" y="-905.95" font-family="Times New Roman,serif" font-size="14.00">Pig Iron</text>
</g>
<!-- raw -->
<g id="node10" class="node">
<title>raw</title>
<path fill="#e1f5fe" stroke="black" d="M1187.12,-1095.5C1187.12,-1095.5 1114.88,-1095.5 1114.88,-1095.5 1108.88,-1095.5 1102.88,-1089.5 1102.88,-1083.5 1102.88,-1083.5 1102.88,-1071.5 1102.88,-1071.5 1102.88,-1065.5 1108.88,-1059.5 1114.88,-1059.5 1114.88,-1059.5 1187.12,-1059.5 1187.12,-1059.5 1193.12,-1059.5 1199.12,-1065.5 1199.12,-1071.5 1199.12,-1071.5 1199.12,-1083.5 1199.12,-1083.5 1199.12,-1089.5 1193.12,-1095.5 1187.12,-1095.5"/>
<text text-anchor="middle" x="1151" y="-1072.45" font-family="Times New Roman,serif" font-size="14.00">Raw Materials</text>
</g>
<!-- pig_iron&#45;&gt;raw -->
<g id="edge3" class="edge">
<title>pig_iron&#45;&gt;raw</title>
<path fill="none" stroke="black" d="M854.98,-927.5C864.53,-950.27 885.32,-992.7 916,-1017 966.31,-1056.84 1040.05,-1070.33 1091.47,-1074.72"/>
<polygon fill="black" stroke="black" points="1090.98,-1078.2 1101.22,-1075.46 1091.51,-1071.22 1090.98,-1078.2"/>
<text text-anchor="middle" x="989.27" y="-1028.2" font-family="Times New Roman,serif" font-size="14.00">raw material</text>
</g>
<!-- scrap -->
<g id="node4" class="node">
<title>scrap</title>
<path fill="#ffcdd2" stroke="black" d="M987.54,-946.12C987.54,-946.12 935.46,-916.88 935.46,-916.88 930.23,-913.94 930.23,-908.06 935.46,-905.12 935.46,-905.12 987.54,-875.88 987.54,-875.88 992.77,-872.94 1003.23,-872.94 1008.46,-875.88 1008.46,-875.88 1060.54,-905.12 1060.54,-905.12 1065.77,-908.06 1065.77,-913.94 1060.54,-916.88 1060.54,-916.88 1008.46,-946.12 1008.46,-946.12 1003.23,-949.06 992.77,-949.06 987.54,-946.12"/>
<text text-anchor="middle" x="998" y="-914.2" font-family="Times New Roman,serif" font-size="14.00">Secondary</text>
<text text-anchor="middle" x="998" y="-897.7" font-family="Times New Roman,serif" font-size="14.00">Scrap</text>
</g>
<!-- scrap&#45;&gt;raw -->
<g id="edge4" class="edge">
<title>scrap&#45;&gt;raw</title>
<path fill="none" stroke="black" d="M1010.44,-945.37C1022.59,-974.09 1043.58,-1014.97 1073,-1041.5 1078.91,-1046.83 1085.77,-1051.46 1092.92,-1055.46"/>
<polygon fill="black" stroke="black" points="1090.94,-1058.38 1101.43,-1059.82 1094.13,-1052.15 1090.94,-1058.38"/>
<text text-anchor="middle" x="1107.5" y="-1028.2" font-family="Times New Roman,serif" font-size="14.00">raw material</text>
</g>
<!-- product_output -->
<g id="node5" class="node">
<title>product_output</title>
<path fill="#c8e6c9" stroke="black" d="M68.58,-925.33C68.58,-925.33 35.45,-914.67 35.45,-914.67 29.74,-912.84 29.74,-909.16 35.45,-907.33 35.45,-907.33 68.58,-896.67 68.58,-896.67 74.29,-894.84 85.71,-894.84 91.42,-896.67 91.42,-896.67 124.55,-907.33 124.55,-907.33 130.26,-909.16 130.26,-912.84 124.55,-914.67 124.55,-914.67 91.42,-925.33 91.42,-925.33 85.71,-927.16 74.29,-927.16 68.58,-925.33"/>
<text text-anchor="middle" x="80" y="-905.95" font-family="Times New Roman,serif" font-size="14.00">Product</text>
</g>
<!-- data_collection -->
<g id="node20" class="node">
<title>data_collection</title>
<ellipse fill="#fff3e0" stroke="black" cx="1187" cy="-511" rx="99.46" ry="18"/>
<text text-anchor="middle" x="1187" y="-505.95" font-family="Times New Roman,serif" font-size="14.00">Data Collection System</text>
</g>
<!-- product_output&#45;&gt;data_collection -->
<g id="edge9" class="edge">
<title>product_output&#45;&gt;data_collection</title>
<path fill="none" stroke="black" d="M85.1,-894.16C91.88,-871.69 103,-829.15 103,-792 103,-792 103,-792 103,-583 103,-534.58 800.85,-518.15 1076.7,-513.55"/>
<polygon fill="black" stroke="black" points="1076.47,-517.05 1086.42,-513.39 1076.36,-510.05 1076.47,-517.05"/>
<text text-anchor="middle" x="157.38" y="-692.45" font-family="Times New Roman,serif" font-size="14.00">product quality data</text>
</g>
<!-- slag_output -->
<g id="node6" class="node">
<title>slag_output</title>
<path fill="#c8e6c9" stroke="black" d="M298.12,-923.93C298.12,-923.93 281.27,-916.07 281.27,-916.07 275.83,-913.54 275.83,-908.46 281.27,-905.93 281.27,-905.93 298.12,-898.07 298.12,-898.07 303.56,-895.54 314.44,-895.54 319.88,-898.07 319.88,-898.07 336.73,-905.93 336.73,-905.93 342.17,-908.46 342.17,-913.54 336.73,-916.07 336.73,-916.07 319.88,-923.93 319.88,-923.93 314.44,-926.46 303.56,-926.46 298.12,-923.93"/>
<text text-anchor="middle" x="309" y="-905.95" font-family="Times New Roman,serif" font-size="14.00">Slag</text>
</g>
<!-- sensor_network -->
<g id="node19" class="node">
<title>sensor_network</title>
<ellipse fill="#fff3e0" stroke="black" cx="1201" cy="-584" rx="70.8" ry="18"/>
<text text-anchor="middle" x="1201" y="-578.95" font-family="Times New Roman,serif" font-size="14.00">Sensor Network</text>
</g>
<!-- slag_output&#45;&gt;sensor_network -->
<g id="edge10" class="edge">
<title>slag_output&#45;&gt;sensor_network</title>
<path fill="none" stroke="black" d="M317.77,-896.91C330.58,-878.86 356.14,-846.64 386,-829.5 636.98,-685.45 981.09,-618.69 1128.83,-595.28"/>
<polygon fill="black" stroke="black" points="1129.13,-598.78 1138.47,-593.77 1128.05,-591.86 1129.13,-598.78"/>
<text text-anchor="middle" x="626.73" y="-739.2" font-family="Times New Roman,serif" font-size="14.00">composition data</text>
</g>
<!-- emissions -->
<g id="node7" class="node">
<title>emissions</title>
<path fill="#c8e6c9" stroke="black" d="M423.38,-926C423.38,-926 376.89,-914 376.89,-914 371.08,-912.5 371.08,-909.5 376.89,-908 376.89,-908 423.38,-896 423.38,-896 429.19,-894.5 440.81,-894.5 446.62,-896 446.62,-896 493.11,-908 493.11,-908 498.92,-909.5 498.92,-912.5 493.11,-914 493.11,-914 446.62,-926 446.62,-926 440.81,-927.5 429.19,-927.5 423.38,-926"/>
<text text-anchor="middle" x="435" y="-905.95" font-family="Times New Roman,serif" font-size="14.00">Emissions</text>
</g>
<!-- emissions&#45;&gt;sensor_network -->
<g id="edge11" class="edge">
<title>emissions&#45;&gt;sensor_network</title>
<path fill="none" stroke="black" d="M451.57,-897.03C467.66,-884.86 493.08,-866.66 517,-854 740.41,-735.71 1027.67,-639.41 1146.16,-601.9"/>
<polygon fill="black" stroke="black" points="1147.16,-605.25 1155.65,-598.91 1145.06,-598.58 1147.16,-605.25"/>
<text text-anchor="middle" x="823.21" y="-739.2" font-family="Times New Roman,serif" font-size="14.00">environmental data</text>
</g>
<!-- waste_water -->
<g id="node8" class="node">
<title>waste_water</title>
<path fill="#c8e6c9" stroke="black" d="M193.8,-944.3C193.8,-944.3 163.2,-918.7 163.2,-918.7 158.6,-914.85 158.6,-907.15 163.2,-903.3 163.2,-903.3 193.8,-877.7 193.8,-877.7 198.4,-873.85 207.6,-873.85 212.2,-877.7 212.2,-877.7 242.8,-903.3 242.8,-903.3 247.4,-907.15 247.4,-914.85 242.8,-918.7 242.8,-918.7 212.2,-944.3 212.2,-944.3 207.6,-948.15 198.4,-948.15 193.8,-944.3"/>
<text text-anchor="middle" x="203" y="-914.2" font-family="Times New Roman,serif" font-size="14.00">Waste</text>
<text text-anchor="middle" x="203" y="-897.7" font-family="Times New Roman,serif" font-size="14.00">Water</text>
</g>
<!-- waste_water&#45;&gt;sensor_network -->
<g id="edge12" class="edge">
<title>waste_water&#45;&gt;sensor_network</title>
<path fill="none" stroke="black" d="M224.46,-887.5C235.05,-876.87 248.26,-864.29 261,-854 334.27,-794.84 352.55,-777.68 437,-736 666.6,-622.69 974.58,-594.39 1119.34,-587.33"/>
<polygon fill="black" stroke="black" points="1119.4,-590.84 1129.22,-586.88 1119.07,-583.84 1119.4,-590.84"/>
<text text-anchor="middle" x="489.5" y="-739.2" font-family="Times New Roman,serif" font-size="14.00">environmental data</text>
</g>
<!-- mold -->
<g id="node9" class="node">
<title>mold</title>
<path fill="#e1f5fe" stroke="black" d="M1403.88,-1330C1403.88,-1330 1282.12,-1330 1282.12,-1330 1276.12,-1330 1270.12,-1324 1270.12,-1318 1270.12,-1318 1270.12,-1306 1270.12,-1306 1270.12,-1300 1276.12,-1294 1282.12,-1294 1282.12,-1294 1403.88,-1294 1403.88,-1294 1409.88,-1294 1415.88,-1300 1415.88,-1306 1415.88,-1306 1415.88,-1318 1415.88,-1318 1415.88,-1324 1409.88,-1330 1403.88,-1330"/>
<text text-anchor="middle" x="1343" y="-1306.95" font-family="Times New Roman,serif" font-size="14.00">Core and Mold Making</text>
</g>
<!-- casting -->
<g id="node14" class="node">
<title>casting</title>
<path fill="#e1f5fe" stroke="black" d="M1376.62,-1257C1376.62,-1257 1343.38,-1257 1343.38,-1257 1337.38,-1257 1331.38,-1251 1331.38,-1245 1331.38,-1245 1331.38,-1233 1331.38,-1233 1331.38,-1227 1337.38,-1221 1343.38,-1221 1343.38,-1221 1376.62,-1221 1376.62,-1221 1382.62,-1221 1388.62,-1227 1388.62,-1233 1388.62,-1233 1388.62,-1245 1388.62,-1245 1388.62,-1251 1382.62,-1257 1376.62,-1257"/>
<text text-anchor="middle" x="1360" y="-1233.95" font-family="Times New Roman,serif" font-size="14.00">Casting</text>
</g>
<!-- mold&#45;&gt;casting -->
<g id="edge17" class="edge">
<title>mold&#45;&gt;casting</title>
<path fill="none" stroke="black" d="M1347.12,-1293.81C1348.97,-1286.05 1351.22,-1276.68 1353.31,-1267.95"/>
<polygon fill="black" stroke="black" points="1356.65,-1269.04 1355.57,-1258.5 1349.84,-1267.41 1356.65,-1269.04"/>
</g>
<!-- refining -->
<g id="node11" class="node">
<title>refining</title>
<path fill="#e1f5fe" stroke="black" d="M1154.62,-929C1154.62,-929 1115.38,-929 1115.38,-929 1109.38,-929 1103.38,-923 1103.38,-917 1103.38,-917 1103.38,-905 1103.38,-905 1103.38,-899 1109.38,-893 1115.38,-893 1115.38,-893 1154.62,-893 1154.62,-893 1160.62,-893 1166.62,-899 1166.62,-905 1166.62,-905 1166.62,-917 1166.62,-917 1166.62,-923 1160.62,-929 1154.62,-929"/>
<text text-anchor="middle" x="1135" y="-905.95" font-family="Times New Roman,serif" font-size="14.00">Refining</text>
</g>
<!-- raw&#45;&gt;refining -->
<g id="edge13" class="edge">
<title>raw&#45;&gt;refining</title>
<path fill="none" stroke="black" d="M1149.32,-1059.21C1146.57,-1030.95 1141.09,-974.59 1137.76,-940.4"/>
<polygon fill="black" stroke="black" points="1141.28,-940.43 1136.83,-930.82 1134.31,-941.11 1141.28,-940.43"/>
</g>
<!-- refining&#45;&gt;melting -->
<g id="edge14" class="edge">
<title>refining&#45;&gt;melting</title>
<path fill="none" stroke="black" d="M1141.72,-892.53C1149.19,-874.92 1162.65,-847.8 1181,-829.5 1185.47,-825.04 1195.86,-818.65 1207.1,-812.42"/>
<polygon fill="black" stroke="black" points="1208.61,-815.58 1215.74,-807.75 1205.28,-809.42 1208.61,-815.58"/>
</g>
<!-- melting&#45;&gt;slag_output -->
<g id="edge6" class="edge">
<title>melting&#45;&gt;slag_output</title>
<path fill="none" stroke="black" d="M1216.81,-808.57C1213.89,-809.72 1210.93,-810.73 1208,-811.5 1136.2,-830.51 948.34,-824.22 874.25,-829.5 791.36,-835.41 770.97,-841.33 688,-846 669.58,-847.04 372.63,-846 356,-854 341.7,-860.88 330.16,-874.39 322.09,-886.42"/>
<polygon fill="black" stroke="black" points="319.25,-884.37 316.95,-894.71 325.2,-888.06 319.25,-884.37"/>
<text text-anchor="middle" x="901.62" y="-832.7" font-family="Times New Roman,serif" font-size="14.00">byproduct</text>
</g>
<!-- melting&#45;&gt;emissions -->
<g id="edge7" class="edge">
<title>melting&#45;&gt;emissions</title>
<path fill="none" stroke="black" d="M1216.79,-808.49C1213.88,-809.66 1210.92,-810.69 1208,-811.5 1108.45,-839.11 1077.05,-806.86 976.25,-829.5 956.18,-834.01 953.2,-842.08 933,-846 887.62,-854.81 561.04,-839.93 517,-854 494.76,-861.1 473.1,-876.36 457.64,-889.16"/>
<polygon fill="black" stroke="black" points="455.74,-886.17 450.44,-895.35 460.3,-891.49 455.74,-886.17"/>
<text text-anchor="middle" x="1003.62" y="-832.7" font-family="Times New Roman,serif" font-size="14.00">byproduct</text>
</g>
<!-- molten -->
<g id="node13" class="node">
<title>molten</title>
<path fill="#e1f5fe" stroke="black" d="M1198.88,-718C1198.88,-718 1131.12,-718 1131.12,-718 1125.12,-718 1119.12,-712 1119.12,-706 1119.12,-706 1119.12,-689 1119.12,-689 1119.12,-683 1125.12,-677 1131.12,-677 1131.12,-677 1198.88,-677 1198.88,-677 1204.88,-677 1210.88,-683 1210.88,-689 1210.88,-689 1210.88,-706 1210.88,-706 1210.88,-712 1204.88,-718 1198.88,-718"/>
<text text-anchor="middle" x="1165" y="-700.7" font-family="Times New Roman,serif" font-size="14.00">Molten Metal</text>
<text text-anchor="middle" x="1165" y="-684.2" font-family="Times New Roman,serif" font-size="14.00">Handling</text>
</g>
<!-- melting&#45;&gt;molten -->
<g id="edge15" class="edge">
<title>melting&#45;&gt;molten</title>
<path fill="none" stroke="black" d="M1231.58,-772.79C1219.94,-759.81 1203.73,-741.72 1190.22,-726.64"/>
<polygon fill="black" stroke="black" points="1192.92,-724.41 1183.64,-719.3 1187.71,-729.08 1192.92,-724.41"/>
</g>
<!-- melting&#45;&gt;sensor_network -->
<g id="edge25" class="edge">
<title>melting&#45;&gt;sensor_network</title>
<path fill="none" stroke="black" d="M1247.62,-772.74C1248.14,-744.74 1247.12,-687.94 1233,-642.5 1229.66,-631.76 1224.16,-620.79 1218.66,-611.34"/>
<polygon fill="black" stroke="black" points="1221.79,-609.75 1213.57,-603.06 1215.82,-613.41 1221.79,-609.75"/>
<text text-anchor="middle" x="1284.68" y="-692.45" font-family="Times New Roman,serif" font-size="14.00">generates data</text>
</g>
<!-- molten&#45;&gt;casting -->
<g id="edge16" class="edge">
<title>molten&#45;&gt;casting</title>
<path fill="none" stroke="black" d="M1211.16,-713.27C1268.33,-734.31 1363.26,-778.93 1405,-854 1443.56,-923.35 1415,-952.9 1415,-1032.25 1415,-1167 1415,-1167 1415,-1167 1415,-1184.61 1404.3,-1200.5 1392.33,-1212.76"/>
<polygon fill="black" stroke="black" points="1389.94,-1210.2 1385.07,-1219.61 1394.74,-1215.3 1389.94,-1210.2"/>
</g>
<!-- molten&#45;&gt;sensor_network -->
<g id="edge26" class="edge">
<title>molten&#45;&gt;sensor_network</title>
<path fill="none" stroke="black" d="M1156.93,-676.62C1153.88,-666.24 1151.95,-653.47 1155.75,-642.5 1159.85,-630.67 1167.49,-619.44 1175.35,-610.08"/>
<polygon fill="black" stroke="black" points="1177.75,-612.64 1181.82,-602.86 1172.54,-607.97 1177.75,-612.64"/>
<text text-anchor="middle" x="1194.38" y="-645.7" font-family="Times New Roman,serif" font-size="14.00">generates data</text>
</g>
<!-- casting&#45;&gt;waste_water -->
<g id="edge8" class="edge">
<title>casting&#45;&gt;waste_water</title>
<path fill="none" stroke="black" d="M1330.89,-1235.45C1175.1,-1221.3 440.37,-1148.41 261,-1017 240.31,-1001.84 226.1,-976.96 216.92,-955.22"/>
<polygon fill="black" stroke="black" points="220.19,-953.95 213.26,-945.94 213.68,-956.52 220.19,-953.95"/>
<text text-anchor="middle" x="602.38" y="-1116.7" font-family="Times New Roman,serif" font-size="14.00">waste</text>
</g>
<!-- fettling -->
<g id="node15" class="node">
<title>fettling</title>
<path fill="#e1f5fe" stroke="black" d="M1377,-1184C1377,-1184 1343,-1184 1343,-1184 1337,-1184 1331,-1178 1331,-1172 1331,-1172 1331,-1160 1331,-1160 1331,-1154 1337,-1148 1343,-1148 1343,-1148 1377,-1148 1377,-1148 1383,-1148 1389,-1154 1389,-1160 1389,-1160 1389,-1172 1389,-1172 1389,-1178 1383,-1184 1377,-1184"/>
<text text-anchor="middle" x="1360" y="-1160.95" font-family="Times New Roman,serif" font-size="14.00">Fettling</text>
</g>
<!-- casting&#45;&gt;fettling -->
<g id="edge18" class="edge">
<title>casting&#45;&gt;fettling</title>
<path fill="none" stroke="black" d="M1360,-1220.81C1360,-1213.23 1360,-1204.1 1360,-1195.54"/>
<polygon fill="black" stroke="black" points="1363.5,-1195.54 1360,-1185.54 1356.5,-1195.54 1363.5,-1195.54"/>
</g>
<!-- casting&#45;&gt;sensor_network -->
<g id="edge27" class="edge">
<title>casting&#45;&gt;sensor_network</title>
<path fill="none" stroke="black" d="M1389.01,-1236.81C1460.81,-1233.08 1641,-1218.58 1641,-1167 1641,-1167 1641,-1167 1641,-696.5 1641,-623.16 1408.4,-597.52 1281.43,-588.99"/>
<polygon fill="black" stroke="black" points="1281.95,-585.52 1271.74,-588.37 1281.5,-592.51 1281.95,-585.52"/>
<text text-anchor="middle" x="1679.62" y="-905.95" font-family="Times New Roman,serif" font-size="14.00">generates data</text>
</g>
<!-- fettling&#45;&gt;melting -->
<g id="edge22" class="edge">
<title>fettling&#45;&gt;melting</title>
<path fill="none" stroke="black" d="M1334.89,-1147.65C1286.41,-1114.12 1184.55,-1043.52 1183.5,-1041.5 1178.94,-1032.74 1163.42,-960.87 1204,-854 1208.81,-841.34 1216.74,-828.8 1224.49,-818.34"/>
<polygon fill="black" stroke="black" points="1227.16,-820.61 1230.54,-810.57 1221.63,-816.32 1227.16,-820.61"/>
<text text-anchor="middle" x="1224.75" y="-1028.2" font-family="Times New Roman,serif" font-size="14.00">removed metal</text>
</g>
<!-- grinding -->
<g id="node16" class="node">
<title>grinding</title>
<path fill="#e1f5fe" stroke="black" d="M1380.38,-1095.5C1380.38,-1095.5 1339.62,-1095.5 1339.62,-1095.5 1333.62,-1095.5 1327.62,-1089.5 1327.62,-1083.5 1327.62,-1083.5 1327.62,-1071.5 1327.62,-1071.5 1327.62,-1065.5 1333.62,-1059.5 1339.62,-1059.5 1339.62,-1059.5 1380.38,-1059.5 1380.38,-1059.5 1386.38,-1059.5 1392.38,-1065.5 1392.38,-1071.5 1392.38,-1071.5 1392.38,-1083.5 1392.38,-1083.5 1392.38,-1089.5 1386.38,-1095.5 1380.38,-1095.5"/>
<text text-anchor="middle" x="1360" y="-1072.45" font-family="Times New Roman,serif" font-size="14.00">Grinding</text>
</g>
<!-- fettling&#45;&gt;grinding -->
<g id="edge19" class="edge">
<title>fettling&#45;&gt;grinding</title>
<path fill="none" stroke="black" d="M1360,-1147.91C1360,-1136.26 1360,-1120.55 1360,-1107.02"/>
<polygon fill="black" stroke="black" points="1363.5,-1107.36 1360,-1097.36 1356.5,-1107.36 1363.5,-1107.36"/>
</g>
<!-- fettling&#45;&gt;sensor_network -->
<g id="edge28" class="edge">
<title>fettling&#45;&gt;sensor_network</title>
<path fill="none" stroke="black" d="M1389.12,-1164.5C1442.13,-1161.87 1549,-1147.97 1549,-1078.5 1549,-1078.5 1549,-1078.5 1549,-696.5 1549,-639.63 1378.33,-607.73 1276.03,-593.72"/>
<polygon fill="black" stroke="black" points="1276.7,-590.28 1266.33,-592.42 1275.78,-597.21 1276.7,-590.28"/>
<text text-anchor="middle" x="1587.62" y="-832.7" font-family="Times New Roman,serif" font-size="14.00">generates data</text>
</g>
<!-- grinding&#45;&gt;melting -->
<g id="edge23" class="edge">
<title>grinding&#45;&gt;melting</title>
<path fill="none" stroke="black" d="M1334.67,-1059.17C1317.19,-1047.93 1293.04,-1033.8 1270,-1025 1254.08,-1018.92 1243.22,-1030.25 1232.5,-1017 1186.44,-960.07 1215.44,-866.19 1234.4,-819.77"/>
<polygon fill="black" stroke="black" points="1237.56,-821.27 1238.24,-810.69 1231.12,-818.53 1237.56,-821.27"/>
<text text-anchor="middle" x="1273.75" y="-905.95" font-family="Times New Roman,serif" font-size="14.00">removed metal</text>
</g>
<!-- inspection -->
<g id="node17" class="node">
<title>inspection</title>
<path fill="#e1f5fe" stroke="black" d="M1384.12,-929C1384.12,-929 1335.88,-929 1335.88,-929 1329.88,-929 1323.88,-923 1323.88,-917 1323.88,-917 1323.88,-905 1323.88,-905 1323.88,-899 1329.88,-893 1335.88,-893 1335.88,-893 1384.12,-893 1384.12,-893 1390.12,-893 1396.12,-899 1396.12,-905 1396.12,-905 1396.12,-917 1396.12,-917 1396.12,-923 1390.12,-929 1384.12,-929"/>
<text text-anchor="middle" x="1360" y="-905.95" font-family="Times New Roman,serif" font-size="14.00">Inspection</text>
</g>
<!-- grinding&#45;&gt;inspection -->
<g id="edge20" class="edge">
<title>grinding&#45;&gt;inspection</title>
<path fill="none" stroke="black" d="M1360,-1059.21C1360,-1030.95 1360,-974.59 1360,-940.4"/>
<polygon fill="black" stroke="black" points="1363.5,-940.82 1360,-930.82 1356.5,-940.82 1363.5,-940.82"/>
</g>
<!-- grinding&#45;&gt;sensor_network -->
<g id="edge29" class="edge">
<title>grinding&#45;&gt;sensor_network</title>
<path fill="none" stroke="black" d="M1375.8,-1059.25C1400.13,-1030.81 1444,-971.32 1444,-912 1444,-912 1444,-912 1444,-696.5 1444,-623.47 1352.22,-598.09 1281.47,-589.38"/>
<polygon fill="black" stroke="black" points="1282.14,-585.93 1271.81,-588.29 1281.36,-592.89 1282.14,-585.93"/>
<text text-anchor="middle" x="1482.62" y="-785.95" font-family="Times New Roman,serif" font-size="14.00">generates data</text>
</g>
<!-- inspection&#45;&gt;melting -->
<g id="edge24" class="edge">
<title>inspection&#45;&gt;melting</title>
<path fill="none" stroke="black" d="M1349.38,-892.52C1340.53,-879.62 1326.71,-862.82 1310,-854 1297.81,-847.57 1257.74,-856.23 1248.5,-846 1242.42,-839.27 1240.72,-829.93 1240.96,-820.9"/>
<polygon fill="black" stroke="black" points="1244.44,-821.29 1242.02,-810.97 1237.48,-820.54 1244.44,-821.29"/>
<text text-anchor="middle" x="1289.75" y="-832.7" font-family="Times New Roman,serif" font-size="14.00">removed metal</text>
</g>
<!-- packaging -->
<g id="node18" class="node">
<title>packaging</title>
<path fill="#e1f5fe" stroke="black" d="M1186.75,-811.5C1186.75,-811.5 1115.25,-811.5 1115.25,-811.5 1109.25,-811.5 1103.25,-805.5 1103.25,-799.5 1103.25,-799.5 1103.25,-782.5 1103.25,-782.5 1103.25,-776.5 1109.25,-770.5 1115.25,-770.5 1115.25,-770.5 1186.75,-770.5 1186.75,-770.5 1192.75,-770.5 1198.75,-776.5 1198.75,-782.5 1198.75,-782.5 1198.75,-799.5 1198.75,-799.5 1198.75,-805.5 1192.75,-811.5 1186.75,-811.5"/>
<text text-anchor="middle" x="1151" y="-794.2" font-family="Times New Roman,serif" font-size="14.00">Packaging and</text>
<text text-anchor="middle" x="1151" y="-777.7" font-family="Times New Roman,serif" font-size="14.00">Transport</text>
</g>
<!-- inspection&#45;&gt;packaging -->
<g id="edge21" class="edge">
<title>inspection&#45;&gt;packaging</title>
<path fill="none" stroke="black" d="M1349.61,-892.7C1340.8,-879.71 1326.91,-862.72 1310,-854 1281.39,-839.24 1268.43,-856.53 1238,-846 1219.36,-839.55 1200.53,-828.55 1185.18,-818.15"/>
<polygon fill="black" stroke="black" points="1187.55,-815.53 1177.35,-812.66 1183.53,-821.27 1187.55,-815.53"/>
</g>
<!-- inspection&#45;&gt;sensor_network -->
<g id="edge30" class="edge">
<title>inspection&#45;&gt;sensor_network</title>
<path fill="none" stroke="black" d="M1359.45,-892.75C1357.63,-844.02 1350.48,-706.49 1327,-669 1308.69,-639.76 1276.04,-618.42 1248.56,-604.57"/>
<polygon fill="black" stroke="black" points="1250.22,-601.48 1239.69,-600.29 1247.17,-607.79 1250.22,-601.48"/>
<text text-anchor="middle" x="1386.82" y="-739.2" font-family="Times New Roman,serif" font-size="14.00">generates data</text>
</g>
<!-- packaging&#45;&gt;product_output -->
<g id="edge5" class="edge">
<title>packaging&#45;&gt;product_output</title>
<path fill="none" stroke="black" d="M1102.84,-793.17C914.57,-797.97 234.25,-817.69 145,-854 126.84,-861.39 110.17,-875.98 98.26,-888.42"/>
<polygon fill="black" stroke="black" points="96,-885.71 91.84,-895.45 101.16,-890.43 96,-885.71"/>
<text text-anchor="middle" x="333.71" y="-832.7" font-family="Times New Roman,serif" font-size="14.00">finished product</text>
</g>
<!-- sensor_network&#45;&gt;data_collection -->
<g id="edge32" class="edge">
<title>sensor_network&#45;&gt;data_collection</title>
<path fill="none" stroke="black" d="M1197.61,-565.81C1196.1,-558.14 1194.27,-548.89 1192.57,-540.24"/>
<polygon fill="black" stroke="black" points="1196.02,-539.65 1190.65,-530.51 1189.15,-541 1196.02,-539.65"/>
</g>
<!-- data_processing -->
<g id="node21" class="node">
<title>data_processing</title>
<ellipse fill="#fff3e0" stroke="black" cx="1173" cy="-438" rx="70.8" ry="18"/>
<text text-anchor="middle" x="1173" y="-432.95" font-family="Times New Roman,serif" font-size="14.00">Data Processing</text>
</g>
<!-- data_collection&#45;&gt;data_processing -->
<g id="edge33" class="edge">
<title>data_collection&#45;&gt;data_processing</title>
<path fill="none" stroke="black" d="M1183.61,-492.81C1182.1,-485.14 1180.27,-475.89 1178.57,-467.24"/>
<polygon fill="black" stroke="black" points="1182.02,-466.65 1176.65,-457.51 1175.15,-468 1182.02,-466.65"/>
</g>
<!-- lca -->
<g id="node22" class="node">
<title>lca</title>
<path fill="#f3e5f5" stroke="black" d="M1021.88,-345C1021.88,-345 882.12,-345 882.12,-345 876.12,-345 870.12,-339 870.12,-333 870.12,-333 870.12,-321 870.12,-321 870.12,-315 876.12,-309 882.12,-309 882.12,-309 1021.88,-309 1021.88,-309 1027.88,-309 1033.88,-315 1033.88,-321 1033.88,-321 1033.88,-333 1033.88,-333 1033.88,-339 1027.88,-345 1021.88,-345"/>
<text text-anchor="middle" x="952" y="-321.95" font-family="Times New Roman,serif" font-size="14.00">Life Cycle Analysis Model</text>
</g>
<!-- data_processing&#45;&gt;lca -->
<g id="edge34" class="edge">
<title>data_processing&#45;&gt;lca</title>
<path fill="none" stroke="black" d="M1141.8,-421.61C1104.21,-403.07 1040.74,-371.77 997.64,-350.51"/>
<polygon fill="black" stroke="black" points="999.3,-347.42 988.78,-346.14 996.2,-353.7 999.3,-347.42"/>
<text text-anchor="middle" x="1115.77" y="-388.7" font-family="Times New Roman,serif" font-size="14.00">feeds</text>
</g>
<!-- energy_analysis -->
<g id="node29" class="node">
<title>energy_analysis</title>
<path fill="#f3e5f5" stroke="black" d="M1213.62,-345C1213.62,-345 1132.38,-345 1132.38,-345 1126.38,-345 1120.38,-339 1120.38,-333 1120.38,-333 1120.38,-321 1120.38,-321 1120.38,-315 1126.38,-309 1132.38,-309 1132.38,-309 1213.62,-309 1213.62,-309 1219.62,-309 1225.62,-315 1225.62,-321 1225.62,-321 1225.62,-333 1225.62,-333 1225.62,-339 1219.62,-345 1213.62,-345"/>
<text text-anchor="middle" x="1173" y="-321.95" font-family="Times New Roman,serif" font-size="14.00">Energy Analysis</text>
</g>
<!-- data_processing&#45;&gt;energy_analysis -->
<g id="edge35" class="edge">
<title>data_processing&#45;&gt;energy_analysis</title>
<path fill="none" stroke="black" d="M1173,-419.97C1173,-403.03 1173,-376.73 1173,-356.59"/>
<polygon fill="black" stroke="black" points="1176.5,-356.78 1173,-346.78 1169.5,-356.78 1176.5,-356.78"/>
<text text-anchor="middle" x="1187.25" y="-388.7" font-family="Times New Roman,serif" font-size="14.00">feeds</text>
</g>
<!-- quality_analysis -->
<g id="node30" class="node">
<title>quality_analysis</title>
<path fill="#f3e5f5" stroke="black" d="M741.38,-345C741.38,-345 658.62,-345 658.62,-345 652.62,-345 646.62,-339 646.62,-333 646.62,-333 646.62,-321 646.62,-321 646.62,-315 652.62,-309 658.62,-309 658.62,-309 741.38,-309 741.38,-309 747.38,-309 753.38,-315 753.38,-321 753.38,-321 753.38,-333 753.38,-333 753.38,-339 747.38,-345 741.38,-345"/>
<text text-anchor="middle" x="700" y="-321.95" font-family="Times New Roman,serif" font-size="14.00">Quality Analysis</text>
</g>
<!-- data_processing&#45;&gt;quality_analysis -->
<g id="edge36" class="edge">
<title>data_processing&#45;&gt;quality_analysis</title>
<path fill="none" stroke="black" d="M1113.93,-427.72C1050.87,-417.36 948.23,-399.16 861,-377.5 828.01,-369.31 791.79,-358.35 762.08,-348.83"/>
<polygon fill="black" stroke="black" points="763.47,-345.6 752.88,-345.86 761.32,-352.26 763.47,-345.6"/>
<text text-anchor="middle" x="977.51" y="-388.7" font-family="Times New Roman,serif" font-size="14.00">feeds</text>
</g>
<!-- alerts -->
<g id="node34" class="node">
<title>alerts</title>
<polygon fill="#e8f5e9" stroke="black" points="1217.12,-140.5 1078.88,-140.5 1078.88,-136.5 1074.88,-136.5 1074.88,-132.5 1078.88,-132.5 1078.88,-112.5 1074.88,-112.5 1074.88,-108.5 1078.88,-108.5 1078.88,-104.5 1217.12,-104.5 1217.12,-140.5"/>
<polyline fill="none" stroke="black" points="1078.88,-136.5 1082.88,-136.5 1082.88,-132.5 1078.88,-132.5"/>
<polyline fill="none" stroke="black" points="1078.88,-112.5 1082.88,-112.5 1082.88,-108.5 1078.88,-108.5"/>
<text text-anchor="middle" x="1148" y="-117.45" font-family="Times New Roman,serif" font-size="14.00">Alerts &amp; Notifications</text>
</g>
<!-- data_processing&#45;&gt;alerts -->
<g id="edge53" class="edge">
<title>data_processing&#45;&gt;alerts</title>
<path fill="none" stroke="black" d="M1195.51,-420.47C1244.86,-382.18 1354.32,-284.78 1304,-207.5 1283.32,-175.73 1259.43,-190.87 1226,-173 1211.43,-165.21 1195.96,-155.68 1182.67,-147.06"/>
<polygon fill="black" stroke="black" points="1184.97,-144.38 1174.69,-141.82 1181.13,-150.24 1184.97,-144.38"/>
<text text-anchor="middle" x="1333.86" y="-277.7" font-family="Times New Roman,serif" font-size="14.00">triggers</text>
</g>
<!-- gwp -->
<g id="node23" class="node">
<title>gwp</title>
<path fill="#e1bee7" stroke="black" d="M1213.75,-256.5C1213.75,-256.5 1130.25,-256.5 1130.25,-256.5 1124.25,-256.5 1118.25,-250.5 1118.25,-244.5 1118.25,-244.5 1118.25,-227.5 1118.25,-227.5 1118.25,-221.5 1124.25,-215.5 1130.25,-215.5 1130.25,-215.5 1213.75,-215.5 1213.75,-215.5 1219.75,-215.5 1225.75,-221.5 1225.75,-227.5 1225.75,-227.5 1225.75,-244.5 1225.75,-244.5 1225.75,-250.5 1219.75,-256.5 1213.75,-256.5"/>
<text text-anchor="middle" x="1172" y="-239.2" font-family="Times New Roman,serif" font-size="14.00">Global Warming</text>
<text text-anchor="middle" x="1172" y="-222.7" font-family="Times New Roman,serif" font-size="14.00">Potential (GWP)</text>
</g>
<!-- lca&#45;&gt;gwp -->
<g id="edge37" class="edge">
<title>lca&#45;&gt;gwp</title>
<path fill="none" stroke="black" d="M1021.08,-308.56C1037.98,-303.56 1055.84,-297.63 1072,-291 1091.53,-282.98 1112.2,-272.24 1129.65,-262.44"/>
<polygon fill="black" stroke="black" points="1131.26,-265.55 1138.21,-257.56 1127.79,-259.47 1131.26,-265.55"/>
<text text-anchor="middle" x="1129.2" y="-277.7" font-family="Times New Roman,serif" font-size="14.00">analyzes</text>
</g>
<!-- ap -->
<g id="node24" class="node">
<title>ap</title>
<path fill="#e1bee7" stroke="black" d="M630,-256.5C630,-256.5 560,-256.5 560,-256.5 554,-256.5 548,-250.5 548,-244.5 548,-244.5 548,-227.5 548,-227.5 548,-221.5 554,-215.5 560,-215.5 560,-215.5 630,-215.5 630,-215.5 636,-215.5 642,-221.5 642,-227.5 642,-227.5 642,-244.5 642,-244.5 642,-250.5 636,-256.5 630,-256.5"/>
<text text-anchor="middle" x="595" y="-239.2" font-family="Times New Roman,serif" font-size="14.00">Acidification</text>
<text text-anchor="middle" x="595" y="-222.7" font-family="Times New Roman,serif" font-size="14.00">Potential (AP)</text>
</g>
<!-- lca&#45;&gt;ap -->
<g id="edge39" class="edge">
<title>lca&#45;&gt;ap</title>
<path fill="none" stroke="black" d="M869.7,-316.51C829.44,-310.87 780.5,-302.53 737.5,-291 708.3,-283.17 676.78,-271.57 650.83,-261.13"/>
<polygon fill="black" stroke="black" points="652.42,-258 641.84,-257.47 649.78,-264.48 652.42,-258"/>
<text text-anchor="middle" x="760.75" y="-277.7" font-family="Times New Roman,serif" font-size="14.00">analyzes</text>
</g>
<!-- ep -->
<g id="node25" class="node">
<title>ep</title>
<path fill="#e1bee7" stroke="black" d="M744.12,-256.5C744.12,-256.5 671.88,-256.5 671.88,-256.5 665.88,-256.5 659.88,-250.5 659.88,-244.5 659.88,-244.5 659.88,-227.5 659.88,-227.5 659.88,-221.5 665.88,-215.5 671.88,-215.5 671.88,-215.5 744.12,-215.5 744.12,-215.5 750.12,-215.5 756.12,-221.5 756.12,-227.5 756.12,-227.5 756.12,-244.5 756.12,-244.5 756.12,-250.5 750.12,-256.5 744.12,-256.5"/>
<text text-anchor="middle" x="708" y="-239.2" font-family="Times New Roman,serif" font-size="14.00">Eutrophication</text>
<text text-anchor="middle" x="708" y="-222.7" font-family="Times New Roman,serif" font-size="14.00">Potential (EP)</text>
</g>
<!-- lca&#45;&gt;ep -->
<g id="edge41" class="edge">
<title>lca&#45;&gt;ep</title>
<path fill="none" stroke="black" d="M883.81,-308.59C865.67,-303.43 846.2,-297.43 828.5,-291 805.28,-282.56 780.25,-271.65 759.05,-261.85"/>
<polygon fill="black" stroke="black" points="760.57,-258.7 750.03,-257.64 757.61,-265.04 760.57,-258.7"/>
<text text-anchor="middle" x="851.75" y="-277.7" font-family="Times New Roman,serif" font-size="14.00">analyzes</text>
</g>
<!-- odp -->
<g id="node26" class="node">
<title>odp</title>
<path fill="#e1bee7" stroke="black" d="M870.12,-256.5C870.12,-256.5 785.88,-256.5 785.88,-256.5 779.88,-256.5 773.88,-250.5 773.88,-244.5 773.88,-244.5 773.88,-227.5 773.88,-227.5 773.88,-221.5 779.88,-215.5 785.88,-215.5 785.88,-215.5 870.12,-215.5 870.12,-215.5 876.12,-215.5 882.12,-221.5 882.12,-227.5 882.12,-227.5 882.12,-244.5 882.12,-244.5 882.12,-250.5 876.12,-256.5 870.12,-256.5"/>
<text text-anchor="middle" x="828" y="-239.2" font-family="Times New Roman,serif" font-size="14.00">Ozone Depletion</text>
<text text-anchor="middle" x="828" y="-222.7" font-family="Times New Roman,serif" font-size="14.00">Potential (ODP)</text>
</g>
<!-- lca&#45;&gt;odp -->
<g id="edge43" class="edge">
<title>lca&#45;&gt;odp</title>
<path fill="none" stroke="black" d="M926.47,-308.51C918.45,-302.96 909.57,-296.76 901.5,-291 889.19,-282.22 875.84,-272.48 863.94,-263.71"/>
<polygon fill="black" stroke="black" points="866.09,-260.95 855.97,-257.83 861.94,-266.58 866.09,-260.95"/>
<text text-anchor="middle" x="924.75" y="-277.7" font-family="Times New Roman,serif" font-size="14.00">analyzes</text>
</g>
<!-- htp -->
<g id="node27" class="node">
<title>htp</title>
<path fill="#e1bee7" stroke="black" d="M992.25,-256.5C992.25,-256.5 911.75,-256.5 911.75,-256.5 905.75,-256.5 899.75,-250.5 899.75,-244.5 899.75,-244.5 899.75,-227.5 899.75,-227.5 899.75,-221.5 905.75,-215.5 911.75,-215.5 911.75,-215.5 992.25,-215.5 992.25,-215.5 998.25,-215.5 1004.25,-221.5 1004.25,-227.5 1004.25,-227.5 1004.25,-244.5 1004.25,-244.5 1004.25,-250.5 998.25,-256.5 992.25,-256.5"/>
<text text-anchor="middle" x="952" y="-239.2" font-family="Times New Roman,serif" font-size="14.00">Human Toxicity</text>
<text text-anchor="middle" x="952" y="-222.7" font-family="Times New Roman,serif" font-size="14.00">Potential (HTP)</text>
</g>
<!-- lca&#45;&gt;htp -->
<g id="edge45" class="edge">
<title>lca&#45;&gt;htp</title>
<path fill="none" stroke="black" d="M952,-308.84C952,-297.35 952,-281.9 952,-268.27"/>
<polygon fill="black" stroke="black" points="955.5,-268.42 952,-258.42 948.5,-268.42 955.5,-268.42"/>
<text text-anchor="middle" x="975.25" y="-277.7" font-family="Times New Roman,serif" font-size="14.00">analyzes</text>
</g>
<!-- etp -->
<g id="node28" class="node">
<title>etp</title>
<path fill="#e1bee7" stroke="black" d="M1088.12,-256.5C1088.12,-256.5 1033.88,-256.5 1033.88,-256.5 1027.88,-256.5 1021.88,-250.5 1021.88,-244.5 1021.88,-244.5 1021.88,-227.5 1021.88,-227.5 1021.88,-221.5 1027.88,-215.5 1033.88,-215.5 1033.88,-215.5 1088.12,-215.5 1088.12,-215.5 1094.12,-215.5 1100.12,-221.5 1100.12,-227.5 1100.12,-227.5 1100.12,-244.5 1100.12,-244.5 1100.12,-250.5 1094.12,-256.5 1088.12,-256.5"/>
<text text-anchor="middle" x="1061" y="-239.2" font-family="Times New Roman,serif" font-size="14.00">Ecotoxicity</text>
<text text-anchor="middle" x="1061" y="-222.7" font-family="Times New Roman,serif" font-size="14.00">Potential</text>
</g>
<!-- lca&#45;&gt;etp -->
<g id="edge47" class="edge">
<title>lca&#45;&gt;etp</title>
<path fill="none" stroke="black" d="M979.01,-308.56C986.92,-303.16 995.46,-297.04 1003,-291 1013.19,-282.83 1023.8,-273.3 1033.12,-264.53"/>
<polygon fill="black" stroke="black" points="1035.35,-267.24 1040.16,-257.8 1030.51,-262.17 1035.35,-267.24"/>
<text text-anchor="middle" x="1044.47" y="-277.7" font-family="Times New Roman,serif" font-size="14.00">analyzes</text>
</g>
<!-- visualization -->
<g id="node32" class="node">
<title>visualization</title>
<polygon fill="#e8f5e9" stroke="black" points="1060.88,-140.5 945.12,-140.5 945.12,-136.5 941.12,-136.5 941.12,-132.5 945.12,-132.5 945.12,-112.5 941.12,-112.5 941.12,-108.5 945.12,-108.5 945.12,-104.5 1060.88,-104.5 1060.88,-140.5"/>
<polyline fill="none" stroke="black" points="945.12,-136.5 949.12,-136.5 949.12,-132.5 945.12,-132.5"/>
<polyline fill="none" stroke="black" points="945.12,-112.5 949.12,-112.5 949.12,-108.5 945.12,-108.5"/>
<text text-anchor="middle" x="1003" y="-117.45" font-family="Times New Roman,serif" font-size="14.00">Data Visualization</text>
</g>
<!-- gwp&#45;&gt;visualization -->
<g id="edge38" class="edge">
<title>gwp&#45;&gt;visualization</title>
<path fill="none" stroke="black" d="M1151.54,-215.16C1138.58,-203.62 1120.94,-189.68 1103,-181 1089.42,-174.42 1083.67,-179.39 1070,-173 1056.15,-166.53 1042.31,-156.96 1030.83,-147.95"/>
<polygon fill="black" stroke="black" points="1033.33,-145.47 1023.36,-141.88 1028.91,-150.9 1033.33,-145.47"/>
<text text-anchor="middle" x="1158.79" y="-184.2" font-family="Times New Roman,serif" font-size="14.00">displays in</text>
</g>
<!-- ap&#45;&gt;visualization -->
<g id="edge40" class="edge">
<title>ap&#45;&gt;visualization</title>
<path fill="none" stroke="black" d="M633.17,-215.03C656.64,-203.51 687.65,-189.65 716.5,-181 789.28,-159.18 874.96,-143.21 933.53,-133.72"/>
<polygon fill="black" stroke="black" points="934.06,-137.18 943.38,-132.14 932.96,-130.26 934.06,-137.18"/>
<text text-anchor="middle" x="745.75" y="-184.2" font-family="Times New Roman,serif" font-size="14.00">displays in</text>
</g>
<!-- ep&#45;&gt;visualization -->
<g id="edge42" class="edge">
<title>ep&#45;&gt;visualization</title>
<path fill="none" stroke="black" d="M743.27,-215.17C763.68,-204.2 790.08,-190.83 814.5,-181 853.19,-165.43 897.77,-151.65 933.86,-141.49"/>
<polygon fill="black" stroke="black" points="934.62,-144.91 943.31,-138.86 932.74,-138.16 934.62,-144.91"/>
<text text-anchor="middle" x="843.75" y="-184.2" font-family="Times New Roman,serif" font-size="14.00">displays in</text>
</g>
<!-- odp&#45;&gt;visualization -->
<g id="edge44" class="edge">
<title>odp&#45;&gt;visualization</title>
<path fill="none" stroke="black" d="M852.53,-215.13C866.05,-204.52 883.33,-191.52 899.5,-181 918.4,-168.7 940.1,-156.39 958.74,-146.33"/>
<polygon fill="black" stroke="black" points="960.23,-149.49 967.4,-141.7 956.93,-143.32 960.23,-149.49"/>
<text text-anchor="middle" x="928.75" y="-184.2" font-family="Times New Roman,serif" font-size="14.00">displays in</text>
</g>
<!-- htp&#45;&gt;visualization -->
<g id="edge46" class="edge">
<title>htp&#45;&gt;visualization</title>
<path fill="none" stroke="black" d="M956.34,-215.05C958.94,-204.66 962.69,-191.88 967.5,-181 972.1,-170.6 978.31,-159.83 984.24,-150.46"/>
<polygon fill="black" stroke="black" points="987.1,-152.48 989.66,-142.2 981.25,-148.64 987.1,-152.48"/>
<text text-anchor="middle" x="996.75" y="-184.2" font-family="Times New Roman,serif" font-size="14.00">displays in</text>
</g>
<!-- etp&#45;&gt;visualization -->
<g id="edge48" class="edge">
<title>etp&#45;&gt;visualization</title>
<path fill="none" stroke="black" d="M1050.63,-215.07C1041.3,-197.12 1027.49,-170.59 1017.15,-150.69"/>
<polygon fill="black" stroke="black" points="1020.37,-149.3 1012.65,-142.05 1014.16,-152.53 1020.37,-149.3"/>
<text text-anchor="middle" x="1069.83" y="-184.2" font-family="Times New Roman,serif" font-size="14.00">displays in</text>
</g>
<!-- energy_analysis&#45;&gt;visualization -->
<g id="edge49" class="edge">
<title>energy_analysis&#45;&gt;visualization</title>
<path fill="none" stroke="black" d="M1195.31,-308.6C1209.66,-295.92 1227.05,-277.35 1235,-256.5 1242.76,-236.15 1245.62,-226.51 1235,-207.5 1198.48,-142.09 1140.35,-198.75 1070,-173 1055.21,-167.59 1040.88,-157.82 1029.3,-148.39"/>
<polygon fill="black" stroke="black" points="1031.66,-145.81 1021.79,-141.97 1027.11,-151.13 1031.66,-145.81"/>
<text text-anchor="middle" x="1271.18" y="-230.95" font-family="Times New Roman,serif" font-size="14.00">displays in</text>
</g>
<!-- quality_analysis&#45;&gt;visualization -->
<g id="edge50" class="edge">
<title>quality_analysis&#45;&gt;visualization</title>
<path fill="none" stroke="black" d="M646.4,-317.72C565.94,-303.12 428.61,-268.4 480.5,-207.5 537.91,-140.13 804.9,-126.59 933.46,-124.01"/>
<polygon fill="black" stroke="black" points="933.26,-127.51 943.2,-123.83 933.14,-120.51 933.26,-127.51"/>
<text text-anchor="middle" x="509.75" y="-230.95" font-family="Times New Roman,serif" font-size="14.00">displays in</text>
</g>
<!-- dashboard -->
<g id="node31" class="node">
<title>dashboard</title>
<polygon fill="#e8f5e9" stroke="black" points="1081,-52 945,-52 945,-48 941,-48 941,-44 945,-44 945,-24 941,-24 941,-20 945,-20 945,-16 1081,-16 1081,-52"/>
<polyline fill="none" stroke="black" points="945,-48 949,-48 949,-44 945,-44"/>
<polyline fill="none" stroke="black" points="945,-24 949,-24 949,-20 945,-20"/>
<text text-anchor="middle" x="1013" y="-28.95" font-family="Times New Roman,serif" font-size="14.00">Interactive Dashboard</text>
</g>
<!-- visualization&#45;&gt;dashboard -->
<g id="edge51" class="edge">
<title>visualization&#45;&gt;dashboard</title>
<path fill="none" stroke="black" d="M1004.98,-104.41C1006.32,-92.76 1008.14,-77.05 1009.7,-63.52"/>
<polygon fill="black" stroke="black" points="1013.15,-64.19 1010.82,-53.85 1006.2,-63.39 1013.15,-64.19"/>
<text text-anchor="middle" x="1049.02" y="-73.2" font-family="Times New Roman,serif" font-size="14.00">integrates with</text>
</g>
<!-- reporting -->
<g id="node33" class="node">
<title>reporting</title>
<polygon fill="#e8f5e9" stroke="black" points="1220.88,-52 1099.12,-52 1099.12,-48 1095.12,-48 1095.12,-44 1099.12,-44 1099.12,-24 1095.12,-24 1095.12,-20 1099.12,-20 1099.12,-16 1220.88,-16 1220.88,-52"/>
<polyline fill="none" stroke="black" points="1099.12,-48 1103.12,-48 1103.12,-44 1099.12,-44"/>
<polyline fill="none" stroke="black" points="1099.12,-24 1103.12,-24 1103.12,-20 1099.12,-20"/>
<text text-anchor="middle" x="1160" y="-28.95" font-family="Times New Roman,serif" font-size="14.00">Reporting Interface</text>
</g>
<!-- visualization&#45;&gt;reporting -->
<g id="edge52" class="edge">
<title>visualization&#45;&gt;reporting</title>
<path fill="none" stroke="black" d="M1055.09,-104.14C1067.81,-99.12 1081.17,-93.17 1093,-86.5 1106.51,-78.89 1120.3,-68.78 1131.82,-59.53"/>
<polygon fill="black" stroke="black" points="1133.86,-62.38 1139.35,-53.33 1129.41,-56.98 1133.86,-62.38"/>
<text text-anchor="middle" x="1141.83" y="-73.2" font-family="Times New Roman,serif" font-size="14.00">generates</text>
</g>
<!-- user_input -->
<g id="node35" class="node">
<title>user_input</title>
<polygon fill="#e8f5e9" stroke="black" points="1360.75,-140.5 1235.25,-140.5 1235.25,-136.5 1231.25,-136.5 1231.25,-132.5 1235.25,-132.5 1235.25,-112.5 1231.25,-112.5 1231.25,-108.5 1235.25,-108.5 1235.25,-104.5 1360.75,-104.5 1360.75,-140.5"/>
<polyline fill="none" stroke="black" points="1235.25,-136.5 1239.25,-136.5 1239.25,-132.5 1235.25,-132.5"/>
<polyline fill="none" stroke="black" points="1235.25,-112.5 1239.25,-112.5 1239.25,-108.5 1235.25,-108.5"/>
<text text-anchor="middle" x="1298" y="-117.45" font-family="Times New Roman,serif" font-size="14.00">User Input Interface</text>
</g>
<!-- user_input&#45;&gt;data_collection -->
<g id="edge31" class="edge">
<title>user_input&#45;&gt;data_collection</title>
<path fill="none" stroke="black" d="M1332.15,-140.84C1363.46,-159.46 1405,-192.21 1405,-235 1405,-439 1405,-439 1405,-439 1405,-467.57 1336.44,-486.43 1276.22,-497.48"/>
<polygon fill="black" stroke="black" points="1275.81,-493.99 1266.58,-499.19 1277.04,-500.89 1275.81,-493.99"/>
<text text-anchor="middle" x="1454.12" y="-321.95" font-family="Times New Roman,serif" font-size="14.00">manual data entry</text>
</g>
</g>
</svg>
